<svg xmlns="http://www.w3.org/2000/svg" viewBox="0 0 240 180" fill="none"><rect x="18" y="18" width="204" height="144" rx="24" fill="#fff" stroke="#1f6fe0" stroke-width="4"/><circle cx="120" cy="90" r="28" fill="#eaf2ff" stroke="#1f6fe0" stroke-width="4"/><path d="M120 62V38M120 142v-24M92 90H58M182 90h-34M100 70L76 48M164 132l-24-22M140 70l24-22M76 132l24-22" stroke="#1f6fe0" stroke-width="4" stroke-linecap="round"/><circle cx="120" cy="32" r="9" fill="#7d5cff"/><circle cx="120" cy="148" r="9" fill="#7d5cff"/><circle cx="52" cy="90" r="9" fill="#7d5cff"/><circle cx="188" cy="90" r="9" fill="#7d5cff"/><circle cx="72" cy="44" r="8" fill="#25b979"/><circle cx="168" cy="136" r="8" fill="#25b979"/><circle cx="168" cy="44" r="8" fill="#ff9d19"/><circle cx="72" cy="136" r="8" fill="#ff9d19"/></svg>