<svg xmlns="http://www.w3.org/2000/svg" viewBox="0 0 700 400"><defs><radialGradient id="r"><stop stop-color="#0879d8" stop-opacity=".35"/><stop offset="1" stop-color="#02070d" stop-opacity="0"/></radialGradient><linearGradient id="g"><stop stop-color="#18d8ff"/><stop offset=".55" stop-color="#1688ff"/><stop offset="1" stop-color="#8b5cf6"/></linearGradient></defs><rect width="700" height="400" fill="url(#r)"/><g fill="none" stroke="#1379ce" stroke-opacity=".35"><path d="M0 80h150l100 75M0 330h160l90-75M700 70H560l-100 85M700 330H565l-105-75"/><circle cx="150" cy="80" r="5"/><circle cx="160" cy="330" r="5"/><circle cx="560" cy="70" r="5"/><circle cx="565" cy="330" r="5"/></g><g transform="translate(255 90)"><path d="M95 0 190 55v110l-95 55L0 165V55Z" fill="#07182a" stroke="url(#g)" stroke-width="3"/><path d="M95 25 165 65v80l-70 40-70-40V65Z" fill="#0a315c" stroke="#18d8ff" stroke-width="2"/><text x="95" y="120" text-anchor="middle" font-family="Arial" font-size="42" font-weight="700" fill="#eefaff">C·IA</text></g><g font-family="Arial" font-size="13" fill="#eefaff"><text x="80" y="95">GOBERNANZA</text><text x="535" y="85">CUMPLIMIENTO</text><text x="55" y="210">RIESGO</text><text x="575" y="205">ARQUITECTURA</text><text x="75" y="335">AUDITORÍA</text><text x="525" y="340">OBSERVABILIDAD</text></g></svg>