<svg xmlns="http://www.w3.org/2000/svg" width="1200" height="620" viewBox="0 0 1200 620" role="img" aria-labelledby="t d">
<title id="t">Datos RAG · evidencia y operación</title><desc id="d">Diagrama original de CyberLibrary AI para Datos RAG · evidencia y operación</desc>
<defs><linearGradient id="bg" x1="0" y1="0" x2="1" y2="1"><stop stop-color="#F8FBFF"/><stop offset="1" stop-color="#EEF4FA"/></linearGradient><filter id="s" x="-20%" y="-20%" width="140%" height="140%"><feDropShadow dx="0" dy="8" stdDeviation="10" flood-color="#284866" flood-opacity=".12"/></filter></defs>
<rect width="1200" height="620" rx="28" fill="url(#bg)"/><path d="M0 100H1200M0 200H1200M0 300H1200M0 400H1200M0 500H1200M100 0V620M200 0V620M300 0V620M400 0V620M500 0V620M600 0V620M700 0V620M800 0V620M900 0V620M1000 0V620M1100 0V620" stroke="#DDE7F1" stroke-width="1" opacity=".45"/>
<rect x="36" y="34" width="10" height="552" rx="5" fill="#14B8A6"/>
<text x="78" y="82" font-family="Inter,Segoe UI,Arial" font-size="16" font-weight="800" fill="#14B8A6" letter-spacing="2">EVIDENCIA Y OPERACIÓN · Datos RAG</text><g filter="url(#s)"><rect x="62" y="155" width="176" height="120" rx="18" fill="#fff" stroke="#D6E1EC"/><path d="M125 216l10-36h30l10 36z" fill="none" stroke="#14B8A6" stroke-width="3"/><path d="M137 194h26M133 206h34" stroke="#14B8A6" stroke-width="3" stroke-linecap="round"/><text x="150" y="250" text-anchor="middle" font-family="Inter,Segoe UI,Arial" font-size="13" font-weight="750" fill="#18283A"><tspan x="150" dy="0">Registro</tspan></text></g><path d="M240 215H298" stroke="#14B8A6" stroke-width="4" stroke-linecap="round"/><path d="M290 207l12 8-12 8" fill="none" stroke="#14B8A6" stroke-width="4" stroke-linecap="round" stroke-linejoin="round"/><g filter="url(#s)"><rect x="302" y="155" width="176" height="120" rx="18" fill="#fff" stroke="#D6E1EC"/><circle cx="390" cy="198" r="25" fill="none" stroke="#14B8A6" stroke-width="3"/><path d="M378 206c5-18 19-18 24 0M382 190a8 8 0 1016 0" fill="none" stroke="#14B8A6" stroke-width="3" stroke-linecap="round"/><text x="390" y="250" text-anchor="middle" font-family="Inter,Segoe UI,Arial" font-size="13" font-weight="750" fill="#18283A"><tspan x="390" dy="0">Prueba</tspan></text></g><path d="M480 215H538" stroke="#14B8A6" stroke-width="4" stroke-linecap="round"/><path d="M530 207l12 8-12 8" fill="none" stroke="#14B8A6" stroke-width="4" stroke-linecap="round" stroke-linejoin="round"/><g filter="url(#s)"><rect x="542" y="155" width="176" height="120" rx="18" fill="#fff" stroke="#D6E1EC"/><path d="M606 180h48v36h-48z" fill="none" stroke="#14B8A6" stroke-width="3"/><path d="M614 190h32M614 198h22M614 206h27" stroke="#14B8A6" stroke-width="3" stroke-linecap="round"/><text x="630" y="250" text-anchor="middle" font-family="Inter,Segoe UI,Arial" font-size="13" font-weight="750" fill="#18283A"><tspan x="630" dy="0">Aprobación</tspan></text></g><path d="M720 215H778" stroke="#14B8A6" stroke-width="4" stroke-linecap="round"/><path d="M770 207l12 8-12 8" fill="none" stroke="#14B8A6" stroke-width="4" stroke-linecap="round" stroke-linejoin="round"/><g filter="url(#s)"><rect x="782" y="155" width="176" height="120" rx="18" fill="#fff" stroke="#D6E1EC"/><circle cx="870" cy="198" r="22" fill="none" stroke="#14B8A6" stroke-width="3"/><path d="M860 198h20M870 188v20" stroke="#14B8A6" stroke-width="3" stroke-linecap="round"/><text x="870" y="250" text-anchor="middle" font-family="Inter,Segoe UI,Arial" font-size="13" font-weight="750" fill="#18283A"><tspan x="870" dy="0">Métrica</tspan></text></g><g filter="url(#s)"><path d="M330 395h540v115H330z" fill="#fff" stroke="#14B8A6" stroke-width="3"/><path d="M330 425h540" stroke="#D6E1EC" stroke-width="2"/><circle cx="365" cy="410" r="6" fill="#14B8A6"/><circle cx="388" cy="410" r="6" fill="#14B8A6" opacity=".65"/><circle cx="411" cy="410" r="6" fill="#14B8A6" opacity=".35"/><text x="600" y="470" text-anchor="middle" font-family="Inter,Segoe UI,Arial" font-size="17" font-weight="800" fill="#18283A"><tspan x="600" dy="0">Repositorio de evidencias · Datos RAG</tspan></text></g></svg>