<svg xmlns="http://www.w3.org/2000/svg" viewBox="0 0 900 380" role="img" aria-label="Diagrama de Datos RAG"><defs><linearGradient id="g" x1="0" y1="0" x2="1" y2="1"><stop stop-color="#d7e92c" stop-opacity=".22"/><stop offset="1" stop-color="#07131f" stop-opacity=".2"/></linearGradient><filter id="gl"><feGaussianBlur stdDeviation="8"/></filter></defs><rect width="900" height="380" rx="24" fill="#06111d"/><rect x="1" y="1" width="898" height="378" rx="23" fill="url(#g)" stroke="#d7e92c" stroke-opacity=".35"/><path d="M 90 270 L 170 115" stroke="#d7e92c" stroke-opacity=".28" stroke-width="2"/><path d="M 185 225 L 252 153" stroke="#d7e92c" stroke-opacity=".28" stroke-width="2"/><path d="M 280 180 L 334 191" stroke="#d7e92c" stroke-opacity=".28" stroke-width="2"/><path d="M 375 270 L 416 229" stroke="#d7e92c" stroke-opacity=".28" stroke-width="2"/><path d="M 470 225 L 498 115" stroke="#d7e92c" stroke-opacity=".28" stroke-width="2"/><path d="M 565 180 L 580 153" stroke="#d7e92c" stroke-opacity=".28" stroke-width="2"/><circle cx="290" cy="282" r="27" fill="none" stroke="#d7e92c" stroke-opacity="0.15" stroke-width="2"/><circle cx="176" cy="187" r="35" fill="none" stroke="#d7e92c" stroke-opacity="0.21" stroke-width="2"/><circle cx="337" cy="321" r="49" fill="none" stroke="#d7e92c" stroke-opacity="0.27" stroke-width="2"/><circle cx="182" cy="294" r="19" fill="none" stroke="#d7e92c" stroke-opacity="0.33" stroke-width="2"/><circle cx="337" cy="100" r="25" fill="none" stroke="#d7e92c" stroke-opacity="0.39" stroke-width="2"/><circle cx="182" cy="175" r="37" fill="none" stroke="#d7e92c" stroke-opacity="0.45" stroke-width="2"/><circle cx="250" cy="75" r="12" fill="none" stroke="#d7e92c" stroke-opacity="0.51" stroke-width="2"/><circle cx="171" cy="51" r="12" fill="none" stroke="#d7e92c" stroke-opacity="0.57" stroke-width="2"/><circle cx="450" cy="190" r="94" fill="#d7e92c" fill-opacity=".08" stroke="#d7e92c" stroke-width="3"/><circle cx="450" cy="190" r="68" fill="#07131f" stroke="#d7e92c" stroke-opacity=".7"/><text x="450" y="205" text-anchor="middle" fill="#d7e92c" font-size="43" font-family="Arial" font-weight="700">DR</text><text x="450" y="342" text-anchor="middle" fill="#aab9c8" font-size="20" font-family="Arial">Datos RAG</text></svg>