<svg xmlns="http://www.w3.org/2000/svg" viewBox="0 0 920 524" role="img" aria-label="Dónde desplegar tu IA"><rect width="920" height="524" rx="16" fill="#ffffff"/><rect x="1" y="1" width="918" height="522" rx="15" fill="none" stroke="#e4e9f0"/><text x="460.0" y="42" font-family="Inter,Segoe UI,Arial,sans-serif" font-size="20" font-weight="800" fill="#16202e" text-anchor="middle">Dónde desplegar tu IA</text><rect x="24" y="253.0" width="150" height="58" rx="11" fill="#334155"/><text x="99.0" y="279.0" font-family="Inter,Segoe UI,Arial,sans-serif" font-size="13" font-weight="800" fill="#fff" text-anchor="middle">Despliegue</text><text x="99.0" y="295.0" font-family="Inter,Segoe UI,Arial,sans-serif" font-size="13" font-weight="800" fill="#fff" text-anchor="middle">de IA</text><path d="M174 282.0 H252.0 V126.0 H330" fill="none" stroke="#c3ccd8" stroke-width="2"/><rect x="330" y="97.0" width="232" height="58" rx="11" fill="#2b74d9"/><text x="346" y="131.0" font-family="Inter,Segoe UI,Arial,sans-serif" font-size="13" font-weight="700" fill="#fff">On-premise</text><path d="M562 126.0 H592.0 V100.0 H622" fill="none" stroke="#c3ccd8" stroke-width="1.6"/><rect x="622" y="81.0" width="268" height="38" rx="9" fill="#5b93e6"/><text x="636" y="104.0" font-family="Inter,Segoe UI,Arial,sans-serif" font-size="11.5" font-weight="600" fill="#fff">Control total</text><path d="M562 126.0 H592.0 V152.0 H622" fill="none" stroke="#c3ccd8" stroke-width="1.6"/><rect x="622" y="133.0" width="268" height="38" rx="9" fill="#5b93e6"/><text x="636" y="156.0" font-family="Inter,Segoe UI,Arial,sans-serif" font-size="11.5" font-weight="600" fill="#fff">Todo el mantenimiento</text><path d="M174 282.0 H252.0 V230.0 H330" fill="none" stroke="#c3ccd8" stroke-width="2"/><rect x="330" y="201.0" width="232" height="58" rx="11" fill="#17a34a"/><text x="346" y="235.0" font-family="Inter,Segoe UI,Arial,sans-serif" font-size="13" font-weight="700" fill="#fff">Nube privada</text><path d="M562 230.0 H592.0 V204.0 H622" fill="none" stroke="#c3ccd8" stroke-width="1.6"/><rect x="622" y="185.0" width="268" height="38" rx="9" fill="#5cbf80"/><text x="636" y="208.0" font-family="Inter,Segoe UI,Arial,sans-serif" font-size="11.5" font-weight="600" fill="#fff">Aislado en la nube</text><path d="M562 230.0 H592.0 V256.0 H622" fill="none" stroke="#c3ccd8" stroke-width="1.6"/><rect x="622" y="237.0" width="268" height="38" rx="9" fill="#5cbf80"/><text x="636" y="260.0" font-family="Inter,Segoe UI,Arial,sans-serif" font-size="11.5" font-weight="600" fill="#fff">Menos infra propia</text><path d="M174 282.0 H252.0 V334.0 H330" fill="none" stroke="#c3ccd8" stroke-width="2"/><rect x="330" y="305.0" width="232" height="58" rx="11" fill="#d97706"/><text x="346" y="339.0" font-family="Inter,Segoe UI,Arial,sans-serif" font-size="13" font-weight="700" fill="#fff">Híbrido</text><path d="M562 334.0 H592.0 V308.0 H622" fill="none" stroke="#c3ccd8" stroke-width="1.6"/><rect x="622" y="289.0" width="268" height="38" rx="9" fill="#e6a24d"/><text x="636" y="312.0" font-family="Inter,Segoe UI,Arial,sans-serif" font-size="11.5" font-weight="600" fill="#fff">Lo sensible dentro</text><path d="M562 334.0 H592.0 V360.0 H622" fill="none" stroke="#c3ccd8" stroke-width="1.6"/><rect x="622" y="341.0" width="268" height="38" rx="9" fill="#e6a24d"/><text x="636" y="364.0" font-family="Inter,Segoe UI,Arial,sans-serif" font-size="11.5" font-weight="600" fill="#fff">Lo demás fuera</text><path d="M174 282.0 H252.0 V438.0 H330" fill="none" stroke="#c3ccd8" stroke-width="2"/><rect x="330" y="409.0" width="232" height="58" rx="11" fill="#9a4fd0"/><text x="346" y="443.0" font-family="Inter,Segoe UI,Arial,sans-serif" font-size="13" font-weight="700" fill="#fff">Air-gapped</text><path d="M562 438.0 H592.0 V412.0 H622" fill="none" stroke="#c3ccd8" stroke-width="1.6"/><rect x="622" y="393.0" width="268" height="38" rx="9" fill="#b579de"/><text x="636" y="416.0" font-family="Inter,Segoe UI,Arial,sans-serif" font-size="11.5" font-weight="600" fill="#fff">Sin salida a internet</text><path d="M562 438.0 H592.0 V464.0 H622" fill="none" stroke="#c3ccd8" stroke-width="1.6"/><rect x="622" y="445.0" width="268" height="38" rx="9" fill="#b579de"/><text x="636" y="468.0" font-family="Inter,Segoe UI,Arial,sans-serif" font-size="11.5" font-weight="600" fill="#fff">Máxima confidencialidad</text></svg>