<svg xmlns="http://www.w3.org/2000/svg" width="1200" height="620" viewBox="0 0 1200 620" role="img" aria-labelledby="t d">
<title id="t">IA privada</title><desc id="d">Diagrama original de CyberLibrary AI para IA privada</desc>
<defs><linearGradient id="bg" x1="0" y1="0" x2="1" y2="1"><stop stop-color="#F8FBFF"/><stop offset="1" stop-color="#EEF4FA"/></linearGradient><filter id="s" x="-20%" y="-20%" width="140%" height="140%"><feDropShadow dx="0" dy="8" stdDeviation="10" flood-color="#284866" flood-opacity=".12"/></filter></defs>
<rect width="1200" height="620" rx="28" fill="url(#bg)"/><path d="M0 100H1200M0 200H1200M0 300H1200M0 400H1200M0 500H1200M100 0V620M200 0V620M300 0V620M400 0V620M500 0V620M600 0V620M700 0V620M800 0V620M900 0V620M1000 0V620M1100 0V620" stroke="#DDE7F1" stroke-width="1" opacity=".45"/>
<rect x="36" y="34" width="10" height="552" rx="5" fill="#2563EB"/>
<text x="78" y="82" font-family="Inter,Segoe UI,Arial" font-size="16" font-weight="800" fill="#2563EB" letter-spacing="2">VISIÓN OPERATIVA</text><circle cx="600" cy="330" r="205" fill="none" stroke="#2563EB" stroke-width="3" stroke-dasharray="10 10" opacity=".35"/><circle cx="600" cy="330" r="118" fill="#fff" stroke="#2563EB" stroke-width="5" filter="url(#s)"/><path d="M576 262h48v36h-48z" fill="none" stroke="#2563EB" stroke-width="3"/><path d="M584 272h32M584 280h22M584 288h27" stroke="#2563EB" stroke-width="3" stroke-linecap="round"/><text x="600" y="355" text-anchor="middle" font-family="Inter,Segoe UI,Arial" font-size="19" font-weight="850" fill="#18283A"><tspan x="600" dy="0">IA privada</tspan></text><g filter="url(#s)"><circle cx="600" cy="125" r="68" fill="#fff" stroke="#D6E1EC"/><circle cx="600" cy="113" r="22" fill="none" stroke="#2563EB" stroke-width="3"/><path d="M590 113h20M600 103v20" stroke="#2563EB" stroke-width="3" stroke-linecap="round"/><text x="600" y="159" text-anchor="middle" font-family="Inter,Segoe UI,Arial" font-size="12" font-weight="750" fill="#18283A"><tspan x="600" dy="0">En pocas</tspan><tspan x="600" dy="15">palabras</tspan></text></g><g filter="url(#s)"><circle cx="805" cy="330" r="68" fill="#fff" stroke="#D6E1EC"/><path d="M805 294l22 9v16c0 18-10 31-22 38-12-7-22-20-22-38v-16l22-9z" fill="none" stroke="#2563EB" stroke-width="3"/><path d="M796 319l7 7 13-16" fill="none" stroke="#2563EB" stroke-width="3" stroke-linecap="round" stroke-linejoin="round"/><text x="805" y="364" text-anchor="middle" font-family="Inter,Segoe UI,Arial" font-size="12" font-weight="750" fill="#18283A"><tspan x="805" dy="0">Las opciones, de</tspan><tspan x="805" dy="15">más control a</tspan><tspan x="805" dy="15">más comodidad</tspan></text></g><g filter="url(#s)"><circle cx="600" cy="535" r="68" fill="#fff" stroke="#D6E1EC"/><rect x="576" y="505" width="48" height="36" rx="8" fill="none" stroke="#2563EB" stroke-width="3"/><circle cx="590" cy="523" r="4" fill="#2563EB"/><circle cx="604" cy="523" r="4" fill="#2563EB"/><path d="M615 516v14" stroke="#2563EB" stroke-width="3" stroke-linecap="round"/><text x="600" y="569" text-anchor="middle" font-family="Inter,Segoe UI,Arial" font-size="12" font-weight="750" fill="#18283A"><tspan x="600" dy="0">Qué gano y qué</tspan><tspan x="600" dy="15">pago</tspan></text></g><g filter="url(#s)"><circle cx="395" cy="330" r="68" fill="#fff" stroke="#D6E1EC"/><path d="M370 336l10-36h30l10 36z" fill="none" stroke="#2563EB" stroke-width="3"/><path d="M382 314h26M378 326h34" stroke="#2563EB" stroke-width="3" stroke-linecap="round"/><text x="395" y="364" text-anchor="middle" font-family="Inter,Segoe UI,Arial" font-size="12" font-weight="750" fill="#18283A"><tspan x="395" dy="0">Cuándo lo</tspan><tspan x="395" dy="15">recomiendo</tspan></text></g></svg>