<svg xmlns="http://www.w3.org/2000/svg" width="1200" height="620" viewBox="0 0 1200 620" role="img" aria-labelledby="t d">
<title id="t">LLM local: instalación y hardening · flujo de control</title><desc id="d">Diagrama original de CyberLibrary AI para LLM local: instalación y hardening · flujo de control</desc>
<defs><linearGradient id="bg" x1="0" y1="0" x2="1" y2="1"><stop stop-color="#F8FBFF"/><stop offset="1" stop-color="#EEF4FA"/></linearGradient><filter id="s" x="-20%" y="-20%" width="140%" height="140%"><feDropShadow dx="0" dy="8" stdDeviation="10" flood-color="#284866" flood-opacity=".12"/></filter></defs>
<rect width="1200" height="620" rx="28" fill="url(#bg)"/><path d="M0 100H1200M0 200H1200M0 300H1200M0 400H1200M0 500H1200M100 0V620M200 0V620M300 0V620M400 0V620M500 0V620M600 0V620M700 0V620M800 0V620M900 0V620M1000 0V620M1100 0V620" stroke="#DDE7F1" stroke-width="1" opacity=".45"/>
<rect x="36" y="34" width="10" height="552" rx="5" fill="#2563EB"/>
<text x="78" y="82" font-family="Inter,Segoe UI,Arial" font-size="16" font-weight="800" fill="#2563EB" letter-spacing="2">FLUJO DE CONTROL · LLM local: instalación y hardening</text><path d="M130 300H1050" stroke="#2563EB" stroke-width="4" opacity=".35"/><path d="M130 300V215" stroke="#2563EB" stroke-width="3" opacity=".5"/><g filter="url(#s)"><rect x="42" y="160" width="176" height="110" rx="18" fill="#fff" stroke="#D6E1EC"/><path d="M106 187h48v36h-48z" fill="none" stroke="#2563EB" stroke-width="3"/><path d="M114 197h32M114 205h22M114 213h27" stroke="#2563EB" stroke-width="3" stroke-linecap="round"/><text x="130" y="250" text-anchor="middle" font-family="Inter,Segoe UI,Arial" font-size="13" font-weight="750" fill="#18283A"><tspan x="130" dy="0">En pocas palabras</tspan></text></g><circle cx="130" cy="300" r="10" fill="#2563EB"/><path d="M350 300V385" stroke="#2563EB" stroke-width="3" opacity=".5"/><g filter="url(#s)"><rect x="262" y="330" width="176" height="110" rx="18" fill="#fff" stroke="#D6E1EC"/><circle cx="350" cy="375" r="22" fill="none" stroke="#2563EB" stroke-width="3"/><path d="M340 375h20M350 365v20" stroke="#2563EB" stroke-width="3" stroke-linecap="round"/><text x="350" y="420" text-anchor="middle" font-family="Inter,Segoe UI,Arial" font-size="13" font-weight="750" fill="#18283A"><tspan x="350" dy="0">Cuándo tiene</tspan><tspan x="350" dy="16">sentido (y cuándo</tspan><tspan x="350" dy="16">no)</tspan></text></g><circle cx="350" cy="300" r="10" fill="#2563EB"/><path d="M570 300V215" stroke="#2563EB" stroke-width="3" opacity=".5"/><g filter="url(#s)"><rect x="482" y="160" width="176" height="110" rx="18" fill="#fff" stroke="#D6E1EC"/><path d="M570 181l22 9v16c0 18-10 31-22 38-12-7-22-20-22-38v-16l22-9z" fill="none" stroke="#2563EB" stroke-width="3"/><path d="M561 206l7 7 13-16" fill="none" stroke="#2563EB" stroke-width="3" stroke-linecap="round" stroke-linejoin="round"/><text x="570" y="250" text-anchor="middle" font-family="Inter,Segoe UI,Arial" font-size="13" font-weight="750" fill="#18283A"><tspan x="570" dy="0">Cómo instalarlo</tspan><tspan x="570" dy="16">paso a paso</tspan></text></g><circle cx="570" cy="300" r="10" fill="#2563EB"/><path d="M790 300V385" stroke="#2563EB" stroke-width="3" opacity=".5"/><g filter="url(#s)"><rect x="702" y="330" width="176" height="110" rx="18" fill="#fff" stroke="#D6E1EC"/><rect x="766" y="357" width="48" height="36" rx="8" fill="none" stroke="#2563EB" stroke-width="3"/><circle cx="780" cy="375" r="4" fill="#2563EB"/><circle cx="794" cy="375" r="4" fill="#2563EB"/><path d="M805 368v14" stroke="#2563EB" stroke-width="3" stroke-linecap="round"/><text x="790" y="420" text-anchor="middle" font-family="Inter,Segoe UI,Arial" font-size="13" font-weight="750" fill="#18283A"><tspan x="790" dy="0">Hardening del</tspan><tspan x="790" dy="16">despliegue</tspan></text></g><circle cx="790" cy="300" r="10" fill="#2563EB"/><path d="M1010 300V215" stroke="#2563EB" stroke-width="3" opacity=".5"/><g filter="url(#s)"><rect x="922" y="160" width="176" height="110" rx="18" fill="#fff" stroke="#D6E1EC"/><path d="M985 223l10-36h30l10 36z" fill="none" stroke="#2563EB" stroke-width="3"/><path d="M997 201h26M993 213h34" stroke="#2563EB" stroke-width="3" stroke-linecap="round"/><text x="1010" y="250" text-anchor="middle" font-family="Inter,Segoe UI,Arial" font-size="13" font-weight="750" fill="#18283A"><tspan x="1010" dy="0">Controles mínimos</tspan></text></g><circle cx="1010" cy="300" r="10" fill="#2563EB"/></svg>