<svg xmlns="http://www.w3.org/2000/svg" width="1200" height="470" viewBox="0 0 1200 470"><style>text{font-family:Arial,sans-serif;fill:#203a55}.title{font-size:22px;font-weight:700}.cap{font-size:11px;font-weight:700;letter-spacing:1px;fill:#5e748a}.item{font-size:12px;font-weight:600}.small{font-size:10px;fill:#6f8295}</style><rect width="1200" height="470" rx="18" fill="#fff"/><text class="title" x="600" y="47" text-anchor="middle">IA en entidades financieras · riesgo y control</text><text class="cap" x="70" y="91">SEÑALES / RIESGOS</text><text class="cap" x="770" y="91">CONTROLES</text><g transform="translate(70,115)"><rect width="360" height="44" rx="10" fill="#f5f9fd" stroke="#d9e5ef"/><circle cx="24" cy="22" r="10" fill="#176fe5" opacity=".16"/><circle cx="24" cy="22" r="4" fill="#176fe5"/><text x="47" y="27" class="item">Decisión incorrecta</text></g><g transform="translate(70,177)"><rect width="360" height="44" rx="10" fill="#f5f9fd" stroke="#d9e5ef"/><circle cx="24" cy="22" r="10" fill="#176fe5" opacity=".16"/><circle cx="24" cy="22" r="4" fill="#176fe5"/><text x="47" y="27" class="item">Datos</text></g><g transform="translate(70,239)"><rect width="360" height="44" rx="10" fill="#f5f9fd" stroke="#d9e5ef"/><circle cx="24" cy="22" r="10" fill="#176fe5" opacity=".16"/><circle cx="24" cy="22" r="4" fill="#176fe5"/><text x="47" y="27" class="item">Concentración</text></g><g transform="translate(70,301)"><rect width="360" height="44" rx="10" fill="#f5f9fd" stroke="#d9e5ef"/><circle cx="24" cy="22" r="10" fill="#176fe5" opacity=".16"/><circle cx="24" cy="22" r="4" fill="#176fe5"/><text x="47" y="27" class="item">Drift</text></g><g transform="translate(70,363)"><rect width="360" height="44" rx="10" fill="#f5f9fd" stroke="#d9e5ef"/><circle cx="24" cy="22" r="10" fill="#176fe5" opacity=".16"/><circle cx="24" cy="22" r="4" fill="#176fe5"/><text x="47" y="27" class="item">Agencia</text></g><g transform="translate(770,115)"><rect width="360" height="44" rx="10" fill="#f8f6fd" stroke="#e2dff0"/><circle cx="24" cy="22" r="10" fill="#7857d6" opacity=".14"/><circle cx="24" cy="22" r="4" fill="#7857d6"/><text x="47" y="27" class="item">Inventario de casos y criticidad</text></g><g transform="translate(770,177)"><rect width="360" height="44" rx="10" fill="#f8f6fd" stroke="#e2dff0"/><circle cx="24" cy="22" r="10" fill="#7857d6" opacity=".14"/><circle cx="24" cy="22" r="4" fill="#7857d6"/><text x="47" y="27" class="item">Gobierno de decisión</text></g><g transform="translate(770,239)"><rect width="360" height="44" rx="10" fill="#f8f6fd" stroke="#e2dff0"/><circle cx="24" cy="22" r="10" fill="#7857d6" opacity=".14"/><circle cx="24" cy="22" r="4" fill="#7857d6"/><text x="47" y="27" class="item">Validación independiente</text></g><g transform="translate(770,301)"><rect width="360" height="44" rx="10" fill="#f8f6fd" stroke="#e2dff0"/><circle cx="24" cy="22" r="10" fill="#7857d6" opacity=".14"/><circle cx="24" cy="22" r="4" fill="#7857d6"/><text x="47" y="27" class="item">Terceros y concentración</text></g><g transform="translate(770,363)"><rect width="360" height="44" rx="10" fill="#f8f6fd" stroke="#e2dff0"/><circle cx="24" cy="22" r="10" fill="#7857d6" opacity=".14"/><circle cx="24" cy="22" r="4" fill="#7857d6"/><text x="47" y="27" class="item">Monitorización y rollback</text></g><path d="M470 137 C535 137 545 235 600 235 C655 235 665 137 730 137 M470 199 C535 199 545 235 600 235 C655 235 665 199 730 199 M470 261 C535 261 545 235 600 235 C655 235 665 261 730 261 M470 323 C535 323 545 235 600 235 C655 235 665 323 730 323" fill="none" stroke="#cbd9e7" stroke-width="2"/><circle cx="600" cy="235" r="64" fill="#176fe5" opacity=".08"/><circle cx="600" cy="235" r="43" fill="#176fe5" opacity=".12"/><text x="600" y="229" text-anchor="middle" style="font:700 13px Arial;fill:#24486b">CONTROL</text><text x="600" y="247" text-anchor="middle" class="small">riesgo · prueba · evidencia</text><text x="600" y="430" text-anchor="middle" class="small">CyberLibrary AI · mapa operativo</text></svg>