<svg xmlns="http://www.w3.org/2000/svg" width="1200" height="620" viewBox="0 0 1200 620" role="img" aria-labelledby="t d">
<title id="t">Exfiltración y Model Extraction · flujo de control</title><desc id="d">Diagrama original de CyberLibrary AI para Exfiltración y Model Extraction · flujo de control</desc>
<defs><linearGradient id="bg" x1="0" y1="0" x2="1" y2="1"><stop stop-color="#F8FBFF"/><stop offset="1" stop-color="#EEF4FA"/></linearGradient><filter id="s" x="-20%" y="-20%" width="140%" height="140%"><feDropShadow dx="0" dy="8" stdDeviation="10" flood-color="#284866" flood-opacity=".12"/></filter></defs>
<rect width="1200" height="620" rx="28" fill="url(#bg)"/><path d="M0 100H1200M0 200H1200M0 300H1200M0 400H1200M0 500H1200M100 0V620M200 0V620M300 0V620M400 0V620M500 0V620M600 0V620M700 0V620M800 0V620M900 0V620M1000 0V620M1100 0V620" stroke="#DDE7F1" stroke-width="1" opacity=".45"/>
<rect x="36" y="34" width="10" height="552" rx="5" fill="#10B981"/>
<text x="78" y="82" font-family="Inter,Segoe UI,Arial" font-size="16" font-weight="800" fill="#10B981" letter-spacing="2">FLUJO DE CONTROL · Exfiltración y Model Extraction</text><path d="M130 300H1050" stroke="#10B981" stroke-width="4" opacity=".35"/><path d="M130 300V215" stroke="#10B981" stroke-width="3" opacity=".5"/><g filter="url(#s)"><rect x="42" y="160" width="176" height="110" rx="18" fill="#fff" stroke="#D6E1EC"/><path d="M130 181l22 9v16c0 18-10 31-22 38-12-7-22-20-22-38v-16l22-9z" fill="none" stroke="#10B981" stroke-width="3"/><path d="M121 206l7 7 13-16" fill="none" stroke="#10B981" stroke-width="3" stroke-linecap="round" stroke-linejoin="round"/><text x="130" y="250" text-anchor="middle" font-family="Inter,Segoe UI,Arial" font-size="13" font-weight="750" fill="#18283A"><tspan x="130" dy="0">En pocas palabras</tspan></text></g><circle cx="130" cy="300" r="10" fill="#10B981"/><path d="M350 300V385" stroke="#10B981" stroke-width="3" opacity=".5"/><g filter="url(#s)"><rect x="262" y="330" width="176" height="110" rx="18" fill="#fff" stroke="#D6E1EC"/><rect x="326" y="357" width="48" height="36" rx="8" fill="none" stroke="#10B981" stroke-width="3"/><circle cx="340" cy="375" r="4" fill="#10B981"/><circle cx="354" cy="375" r="4" fill="#10B981"/><path d="M365 368v14" stroke="#10B981" stroke-width="3" stroke-linecap="round"/><text x="350" y="420" text-anchor="middle" font-family="Inter,Segoe UI,Arial" font-size="13" font-weight="750" fill="#18283A"><tspan x="350" dy="0">Qué es y por qué</tspan><tspan x="350" dy="16">importa</tspan></text></g><circle cx="350" cy="300" r="10" fill="#10B981"/><path d="M570 300V215" stroke="#10B981" stroke-width="3" opacity=".5"/><g filter="url(#s)"><rect x="482" y="160" width="176" height="110" rx="18" fill="#fff" stroke="#D6E1EC"/><path d="M545 223l10-36h30l10 36z" fill="none" stroke="#10B981" stroke-width="3"/><path d="M557 201h26M553 213h34" stroke="#10B981" stroke-width="3" stroke-linecap="round"/><text x="570" y="250" text-anchor="middle" font-family="Inter,Segoe UI,Arial" font-size="13" font-weight="750" fill="#18283A"><tspan x="570" dy="0">Cómo se prueba (de</tspan><tspan x="570" dy="16">forma responsable)</tspan></text></g><circle cx="570" cy="300" r="10" fill="#10B981"/><path d="M790 300V385" stroke="#10B981" stroke-width="3" opacity=".5"/><g filter="url(#s)"><rect x="702" y="330" width="176" height="110" rx="18" fill="#fff" stroke="#D6E1EC"/><circle cx="790" cy="375" r="25" fill="none" stroke="#10B981" stroke-width="3"/><path d="M778 383c5-18 19-18 24 0M782 367a8 8 0 1016 0" fill="none" stroke="#10B981" stroke-width="3" stroke-linecap="round"/><text x="790" y="420" text-anchor="middle" font-family="Inter,Segoe UI,Arial" font-size="13" font-weight="750" fill="#18283A"><tspan x="790" dy="0">Cómo se defiende</tspan></text></g><circle cx="790" cy="300" r="10" fill="#10B981"/><path d="M1010 300V215" stroke="#10B981" stroke-width="3" opacity=".5"/><g filter="url(#s)"><rect x="922" y="160" width="176" height="110" rx="18" fill="#fff" stroke="#D6E1EC"/><path d="M986 187h48v36h-48z" fill="none" stroke="#10B981" stroke-width="3"/><path d="M994 197h32M994 205h22M994 213h27" stroke="#10B981" stroke-width="3" stroke-linecap="round"/><text x="1010" y="250" text-anchor="middle" font-family="Inter,Segoe UI,Arial" font-size="13" font-weight="750" fill="#18283A"><tspan x="1010" dy="0">El ataque de</tspan><tspan x="1010" dy="16">paciencia gana al</tspan><tspan x="1010" dy="16">que solo vigila el</tspan></text></g><circle cx="1010" cy="300" r="10" fill="#10B981"/></svg>