<svg xmlns="http://www.w3.org/2000/svg" viewBox="0 0 900 380" role="img" aria-label="Diagrama de Prompt Injection"><defs><linearGradient id="g" x1="0" y1="0" x2="1" y2="1"><stop stop-color="#a96aff" stop-opacity=".22"/><stop offset="1" stop-color="#07131f" stop-opacity=".2"/></linearGradient><filter id="gl"><feGaussianBlur stdDeviation="8"/></filter></defs><rect width="900" height="380" rx="24" fill="#06111d"/><rect x="1" y="1" width="898" height="378" rx="23" fill="url(#g)" stroke="#a96aff" stroke-opacity=".35"/><path d="M 90 270 L 170 115" stroke="#a96aff" stroke-opacity=".28" stroke-width="2"/><path d="M 185 225 L 252 153" stroke="#a96aff" stroke-opacity=".28" stroke-width="2"/><path d="M 280 180 L 334 191" stroke="#a96aff" stroke-opacity=".28" stroke-width="2"/><path d="M 375 270 L 416 229" stroke="#a96aff" stroke-opacity=".28" stroke-width="2"/><path d="M 470 225 L 498 115" stroke="#a96aff" stroke-opacity=".28" stroke-width="2"/><path d="M 565 180 L 580 153" stroke="#a96aff" stroke-opacity=".28" stroke-width="2"/><circle cx="298" cy="249" r="27" fill="none" stroke="#a96aff" stroke-opacity="0.15" stroke-width="2"/><circle cx="439" cy="307" r="31" fill="none" stroke="#a96aff" stroke-opacity="0.21" stroke-width="2"/><circle cx="457" cy="66" r="28" fill="none" stroke="#a96aff" stroke-opacity="0.27" stroke-width="2"/><circle cx="372" cy="68" r="38" fill="none" stroke="#a96aff" stroke-opacity="0.33" stroke-width="2"/><circle cx="274" cy="191" r="49" fill="none" stroke="#a96aff" stroke-opacity="0.39" stroke-width="2"/><circle cx="349" cy="268" r="22" fill="none" stroke="#a96aff" stroke-opacity="0.45" stroke-width="2"/><circle cx="621" cy="98" r="13" fill="none" stroke="#a96aff" stroke-opacity="0.51" stroke-width="2"/><circle cx="217" cy="53" r="12" fill="none" stroke="#a96aff" stroke-opacity="0.57" stroke-width="2"/><circle cx="450" cy="190" r="94" fill="#a96aff" fill-opacity=".08" stroke="#a96aff" stroke-width="3"/><circle cx="450" cy="190" r="68" fill="#07131f" stroke="#a96aff" stroke-opacity=".7"/><text x="450" y="205" text-anchor="middle" fill="#a96aff" font-size="43" font-family="Arial" font-weight="700">PI</text><text x="450" y="342" text-anchor="middle" fill="#aab9c8" font-size="20" font-family="Arial">Prompt Injection</text></svg>