<svg xmlns="http://www.w3.org/2000/svg" width="1200" height="620" viewBox="0 0 1200 620" role="img" aria-labelledby="t d">
<title id="t">Prompt Injection</title><desc id="d">Diagrama original de CyberLibrary AI para Prompt Injection</desc>
<defs><linearGradient id="bg" x1="0" y1="0" x2="1" y2="1"><stop stop-color="#F8FBFF"/><stop offset="1" stop-color="#EEF4FA"/></linearGradient><filter id="s" x="-20%" y="-20%" width="140%" height="140%"><feDropShadow dx="0" dy="8" stdDeviation="10" flood-color="#284866" flood-opacity=".12"/></filter></defs>
<rect width="1200" height="620" rx="28" fill="url(#bg)"/><path d="M0 100H1200M0 200H1200M0 300H1200M0 400H1200M0 500H1200M100 0V620M200 0V620M300 0V620M400 0V620M500 0V620M600 0V620M700 0V620M800 0V620M900 0V620M1000 0V620M1100 0V620" stroke="#DDE7F1" stroke-width="1" opacity=".45"/>
<rect x="36" y="34" width="10" height="552" rx="5" fill="#10B981"/>
<text x="78" y="82" font-family="Inter,Segoe UI,Arial" font-size="16" font-weight="800" fill="#10B981" letter-spacing="2">ARQUITECTURA DEL CONTROL</text><g filter="url(#s)"><rect x="150.0" y="113" width="900" height="84" rx="18" fill="#fff" stroke="#D6E1EC"/><rect x="150.0" y="113" width="12" height="84" rx="6" fill="#10B981" opacity="1.0"/><path d="M212.0 131l22 9v16c0 18-10 31-22 38-12-7-22-20-22-38v-16l22-9z" fill="none" stroke="#10B981" stroke-width="3"/><path d="M203.0 156l7 7 13-16" fill="none" stroke="#10B981" stroke-width="3" stroke-linecap="round" stroke-linejoin="round"/><text x="600" y="161" text-anchor="middle" font-family="Inter,Segoe UI,Arial" font-size="16" font-weight="750" fill="#18283A"><tspan x="600" dy="0">En pocas palabras</tspan></text></g><g filter="url(#s)"><rect x="220.0" y="228" width="760" height="84" rx="18" fill="#fff" stroke="#D6E1EC"/><rect x="220.0" y="228" width="12" height="84" rx="6" fill="#10B981" opacity="0.87"/><rect x="258.0" y="252" width="48" height="36" rx="8" fill="none" stroke="#10B981" stroke-width="3"/><circle cx="272.0" cy="270" r="4" fill="#10B981"/><circle cx="286.0" cy="270" r="4" fill="#10B981"/><path d="M297.0 263v14" stroke="#10B981" stroke-width="3" stroke-linecap="round"/><text x="600" y="276" text-anchor="middle" font-family="Inter,Segoe UI,Arial" font-size="16" font-weight="750" fill="#18283A"><tspan x="600" dy="0">Dónde encaja en el mapa de ataques</tspan></text></g><g filter="url(#s)"><rect x="290.0" y="343" width="620" height="84" rx="18" fill="#fff" stroke="#D6E1EC"/><rect x="290.0" y="343" width="12" height="84" rx="6" fill="#10B981" opacity="0.74"/><path d="M327.0 403l10-36h30l10 36z" fill="none" stroke="#10B981" stroke-width="3"/><path d="M339.0 381h26M335.0 393h34" stroke="#10B981" stroke-width="3" stroke-linecap="round"/><text x="600" y="391" text-anchor="middle" font-family="Inter,Segoe UI,Arial" font-size="16" font-weight="750" fill="#18283A"><tspan x="600" dy="0">Qué es y por qué importa</tspan></text></g><g filter="url(#s)"><rect x="360.0" y="458" width="480" height="84" rx="18" fill="#fff" stroke="#D6E1EC"/><rect x="360.0" y="458" width="12" height="84" rx="6" fill="#10B981" opacity="0.61"/><circle cx="422.0" cy="500" r="25" fill="none" stroke="#10B981" stroke-width="3"/><path d="M410.0 508c5-18 19-18 24 0M414.0 492a8 8 0 1016 0" fill="none" stroke="#10B981" stroke-width="3" stroke-linecap="round"/><text x="600" y="506" text-anchor="middle" font-family="Inter,Segoe UI,Arial" font-size="16" font-weight="750" fill="#18283A"><tspan x="600" dy="0">Cómo se prueba (de forma responsable)</tspan></text></g><text x="600" y="115" text-anchor="middle" font-family="Inter,Segoe UI,Arial" font-size="22" font-weight="850" fill="#18283A"><tspan x="600" dy="0">Prompt Injection</tspan></text></svg>