<svg xmlns="http://www.w3.org/2000/svg" viewBox="0 0 920 348" role="img" aria-label="Estructura de ISO/IEC 42001"><rect width="920" height="348" rx="16" fill="#ffffff"/><rect x="1" y="1" width="918" height="346" rx="15" fill="none" stroke="#e4e9f0"/><text x="460.0" y="42" font-family="Inter,Segoe UI,Arial,sans-serif" font-size="20" font-weight="800" fill="#16202e" text-anchor="middle">Estructura de ISO/IEC 42001</text><rect x="24" y="165.0" width="150" height="58" rx="11" fill="#334155"/><text x="99.0" y="191.0" font-family="Inter,Segoe UI,Arial,sans-serif" font-size="13" font-weight="800" fill="#fff" text-anchor="middle">ISO/IEC</text><text x="99.0" y="207.0" font-family="Inter,Segoe UI,Arial,sans-serif" font-size="13" font-weight="800" fill="#fff" text-anchor="middle">42001</text><path d="M174 194.0 H252.0 V134.0 H330" fill="none" stroke="#c3ccd8" stroke-width="2"/><rect x="330" y="105.0" width="232" height="58" rx="11" fill="#2b74d9"/><text x="346" y="131.0" font-family="Inter,Segoe UI,Arial,sans-serif" font-size="13" font-weight="700" fill="#fff">Cláusulas 4–10</text><text x="346" y="147.0" font-family="Inter,Segoe UI,Arial,sans-serif" font-size="13" font-weight="700" fill="#fff">(el SGIA)</text><path d="M562 134.0 H592.0 V108.0 H622" fill="none" stroke="#c3ccd8" stroke-width="1.6"/><rect x="622" y="89.0" width="268" height="38" rx="9" fill="#5b93e6"/><text x="636" y="112.0" font-family="Inter,Segoe UI,Arial,sans-serif" font-size="11.5" font-weight="600" fill="#fff">Contexto, liderazgo, riesgos</text><path d="M562 134.0 H592.0 V160.0 H622" fill="none" stroke="#c3ccd8" stroke-width="1.6"/><rect x="622" y="141.0" width="268" height="38" rx="9" fill="#5b93e6"/><text x="636" y="164.0" font-family="Inter,Segoe UI,Arial,sans-serif" font-size="11.5" font-weight="600" fill="#fff">Operación, evaluación, mejora</text><path d="M174 194.0 H252.0 V254.0 H330" fill="none" stroke="#c3ccd8" stroke-width="2"/><rect x="330" y="225.0" width="232" height="58" rx="11" fill="#9a4fd0"/><text x="346" y="251.0" font-family="Inter,Segoe UI,Arial,sans-serif" font-size="13" font-weight="700" fill="#fff">Anexo A</text><text x="346" y="267.0" font-family="Inter,Segoe UI,Arial,sans-serif" font-size="13" font-weight="700" fill="#fff">(controles)</text><path d="M562 254.0 H592.0 V228.0 H622" fill="none" stroke="#c3ccd8" stroke-width="1.6"/><rect x="622" y="209.0" width="268" height="38" rx="9" fill="#b579de"/><text x="636" y="232.0" font-family="Inter,Segoe UI,Arial,sans-serif" font-size="11.5" font-weight="600" fill="#fff">A.2–A.9: políticas, roles, datos</text><path d="M562 254.0 H592.0 V280.0 H622" fill="none" stroke="#c3ccd8" stroke-width="1.6"/><rect x="622" y="261.0" width="268" height="38" rx="9" fill="#b579de"/><text x="636" y="284.0" font-family="Inter,Segoe UI,Arial,sans-serif" font-size="11.5" font-weight="600" fill="#fff">A.6: ciclo de vida del sistema</text></svg>