<svg xmlns="http://www.w3.org/2000/svg" width="1200" height="620" viewBox="0 0 1200 620" role="img" aria-labelledby="t d">
<title id="t">Ciclo de vida de modelos · evidencia y operación</title><desc id="d">Diagrama original de CyberLibrary AI para Ciclo de vida de modelos · evidencia y operación</desc>
<defs><linearGradient id="bg" x1="0" y1="0" x2="1" y2="1"><stop stop-color="#F8FBFF"/><stop offset="1" stop-color="#EEF4FA"/></linearGradient><filter id="s" x="-20%" y="-20%" width="140%" height="140%"><feDropShadow dx="0" dy="8" stdDeviation="10" flood-color="#284866" flood-opacity=".12"/></filter></defs>
<rect width="1200" height="620" rx="28" fill="url(#bg)"/><path d="M0 100H1200M0 200H1200M0 300H1200M0 400H1200M0 500H1200M100 0V620M200 0V620M300 0V620M400 0V620M500 0V620M600 0V620M700 0V620M800 0V620M900 0V620M1000 0V620M1100 0V620" stroke="#DDE7F1" stroke-width="1" opacity=".45"/>
<rect x="36" y="34" width="10" height="552" rx="5" fill="#0EA5A8"/>
<text x="78" y="82" font-family="Inter,Segoe UI,Arial" font-size="16" font-weight="800" fill="#0EA5A8" letter-spacing="2">EVIDENCIA Y OPERACIÓN · Ciclo de vida de modelos</text><g filter="url(#s)"><rect x="150" y="118" width="360" height="164" rx="20" fill="#fff" stroke="#D6E1EC"/><rect x="150" y="118" width="8" height="164" rx="4" fill="#0EA5A8"/><path d="M185 200l10-36h30l10 36z" fill="none" stroke="#0EA5A8" stroke-width="3"/><path d="M197 178h26M193 190h34" stroke="#0EA5A8" stroke-width="3" stroke-linecap="round"/><text x="355" y="180" text-anchor="middle" font-family="Inter,Segoe UI,Arial" font-size="15" font-weight="800" fill="#18283A"><tspan x="355" dy="0">Registro</tspan></text><path d="M310 225h115M310 248h85" stroke="#B9C9D8" stroke-width="8" stroke-linecap="round"/><circle cx="455" cy="240" r="20" fill="#0EA5A8" opacity=".15"/><path d="M445 240l7 7 13-16" fill="none" stroke="#0EA5A8" stroke-width="3" stroke-linecap="round" stroke-linejoin="round"/></g><g filter="url(#s)"><rect x="580" y="118" width="360" height="164" rx="20" fill="#fff" stroke="#D6E1EC"/><rect x="580" y="118" width="8" height="164" rx="4" fill="#0EA5A8"/><circle cx="640" cy="182" r="25" fill="none" stroke="#0EA5A8" stroke-width="3"/><path d="M628 190c5-18 19-18 24 0M632 174a8 8 0 1016 0" fill="none" stroke="#0EA5A8" stroke-width="3" stroke-linecap="round"/><text x="785" y="180" text-anchor="middle" font-family="Inter,Segoe UI,Arial" font-size="15" font-weight="800" fill="#18283A"><tspan x="785" dy="0">Prueba</tspan></text><path d="M740 225h115M740 248h85" stroke="#B9C9D8" stroke-width="8" stroke-linecap="round"/><circle cx="885" cy="240" r="20" fill="#0EA5A8" opacity=".15"/><path d="M875 240l7 7 13-16" fill="none" stroke="#0EA5A8" stroke-width="3" stroke-linecap="round" stroke-linejoin="round"/></g><g filter="url(#s)"><rect x="150" y="348" width="360" height="164" rx="20" fill="#fff" stroke="#D6E1EC"/><rect x="150" y="348" width="8" height="164" rx="4" fill="#0EA5A8"/><path d="M186 394h48v36h-48z" fill="none" stroke="#0EA5A8" stroke-width="3"/><path d="M194 404h32M194 412h22M194 420h27" stroke="#0EA5A8" stroke-width="3" stroke-linecap="round"/><text x="355" y="410" text-anchor="middle" font-family="Inter,Segoe UI,Arial" font-size="15" font-weight="800" fill="#18283A"><tspan x="355" dy="0">Aprobación</tspan></text><path d="M310 455h115M310 478h85" stroke="#B9C9D8" stroke-width="8" stroke-linecap="round"/><circle cx="455" cy="470" r="20" fill="#0EA5A8" opacity=".15"/><path d="M445 470l7 7 13-16" fill="none" stroke="#0EA5A8" stroke-width="3" stroke-linecap="round" stroke-linejoin="round"/></g><g filter="url(#s)"><rect x="580" y="348" width="360" height="164" rx="20" fill="#fff" stroke="#D6E1EC"/><rect x="580" y="348" width="8" height="164" rx="4" fill="#0EA5A8"/><circle cx="640" cy="412" r="22" fill="none" stroke="#0EA5A8" stroke-width="3"/><path d="M630 412h20M640 402v20" stroke="#0EA5A8" stroke-width="3" stroke-linecap="round"/><text x="785" y="410" text-anchor="middle" font-family="Inter,Segoe UI,Arial" font-size="15" font-weight="800" fill="#18283A"><tspan x="785" dy="0">Métrica</tspan></text><path d="M740 455h115M740 478h85" stroke="#B9C9D8" stroke-width="8" stroke-linecap="round"/><circle cx="885" cy="470" r="20" fill="#0EA5A8" opacity=".15"/><path d="M875 470l7 7 13-16" fill="none" stroke="#0EA5A8" stroke-width="3" stroke-linecap="round" stroke-linejoin="round"/></g></svg>