<svg xmlns="http://www.w3.org/2000/svg" viewBox="0 0 920 348" role="img" aria-label="Toda la IA de la organización"><rect width="920" height="348" rx="16" fill="#ffffff"/><rect x="1" y="1" width="918" height="346" rx="15" fill="none" stroke="#e4e9f0"/><text x="460.0" y="42" font-family="Inter,Segoe UI,Arial,sans-serif" font-size="20" font-weight="800" fill="#16202e" text-anchor="middle">Toda la IA de la organización</text><rect x="24" y="165.0" width="150" height="58" rx="11" fill="#334155"/><text x="99.0" y="191.0" font-family="Inter,Segoe UI,Arial,sans-serif" font-size="13" font-weight="800" fill="#fff" text-anchor="middle">IA en la</text><text x="99.0" y="207.0" font-family="Inter,Segoe UI,Arial,sans-serif" font-size="13" font-weight="800" fill="#fff" text-anchor="middle">organización</text><path d="M174 194.0 H252.0 V134.0 H330" fill="none" stroke="#c3ccd8" stroke-width="2"/><rect x="330" y="105.0" width="232" height="58" rx="11" fill="#17a34a"/><text x="346" y="139.0" font-family="Inter,Segoe UI,Arial,sans-serif" font-size="13" font-weight="700" fill="#fff">IA inventariada</text><path d="M562 134.0 H592.0 V108.0 H622" fill="none" stroke="#c3ccd8" stroke-width="1.6"/><rect x="622" y="89.0" width="268" height="38" rx="9" fill="#5cbf80"/><text x="636" y="112.0" font-family="Inter,Segoe UI,Arial,sans-serif" font-size="11.5" font-weight="600" fill="#fff">Modelos propios</text><path d="M562 134.0 H592.0 V160.0 H622" fill="none" stroke="#c3ccd8" stroke-width="1.6"/><rect x="622" y="141.0" width="268" height="38" rx="9" fill="#5cbf80"/><text x="636" y="164.0" font-family="Inter,Segoe UI,Arial,sans-serif" font-size="11.5" font-weight="600" fill="#fff">IA en SaaS aprobado</text><path d="M174 194.0 H252.0 V254.0 H330" fill="none" stroke="#c3ccd8" stroke-width="2"/><rect x="330" y="225.0" width="232" height="58" rx="11" fill="#e23b46"/><text x="346" y="259.0" font-family="Inter,Segoe UI,Arial,sans-serif" font-size="13" font-weight="700" fill="#fff">Shadow AI</text><path d="M562 254.0 H592.0 V228.0 H622" fill="none" stroke="#c3ccd8" stroke-width="1.6"/><rect x="622" y="209.0" width="268" height="38" rx="9" fill="#ed7a80"/><text x="636" y="232.0" font-family="Inter,Segoe UI,Arial,sans-serif" font-size="11.5" font-weight="600" fill="#fff">Herramientas por libre</text><path d="M562 254.0 H592.0 V280.0 H622" fill="none" stroke="#c3ccd8" stroke-width="1.6"/><rect x="622" y="261.0" width="268" height="38" rx="9" fill="#ed7a80"/><text x="636" y="284.0" font-family="Inter,Segoe UI,Arial,sans-serif" font-size="11.5" font-weight="600" fill="#fff">IA embebida no registrada</text></svg>