<svg xmlns="http://www.w3.org/2000/svg" viewBox="0 0 920 420" role="img" aria-label="Qué documenta una model card"><rect width="920" height="420" rx="16" fill="#ffffff"/><rect x="1" y="1" width="918" height="418" rx="15" fill="none" stroke="#e4e9f0"/><text x="460.0" y="42" font-family="Inter,Segoe UI,Arial,sans-serif" font-size="20" font-weight="800" fill="#16202e" text-anchor="middle">Qué documenta una model card</text><rect x="24" y="201.0" width="150" height="58" rx="11" fill="#334155"/><text x="99.0" y="227.0" font-family="Inter,Segoe UI,Arial,sans-serif" font-size="13" font-weight="800" fill="#fff" text-anchor="middle">Model</text><text x="99.0" y="243.0" font-family="Inter,Segoe UI,Arial,sans-serif" font-size="13" font-weight="800" fill="#fff" text-anchor="middle">Card</text><path d="M174 230.0 H252.0 V126.0 H330" fill="none" stroke="#c3ccd8" stroke-width="2"/><rect x="330" y="97.0" width="232" height="58" rx="11" fill="#2b74d9"/><text x="346" y="131.0" font-family="Inter,Segoe UI,Arial,sans-serif" font-size="13" font-weight="700" fill="#fff">Identidad</text><path d="M562 126.0 H592.0 V100.0 H622" fill="none" stroke="#c3ccd8" stroke-width="1.6"/><rect x="622" y="81.0" width="268" height="38" rx="9" fill="#5b93e6"/><text x="636" y="104.0" font-family="Inter,Segoe UI,Arial,sans-serif" font-size="11.5" font-weight="600" fill="#fff">Propósito y alcance</text><path d="M562 126.0 H592.0 V152.0 H622" fill="none" stroke="#c3ccd8" stroke-width="1.6"/><rect x="622" y="133.0" width="268" height="38" rx="9" fill="#5b93e6"/><text x="636" y="156.0" font-family="Inter,Segoe UI,Arial,sans-serif" font-size="11.5" font-weight="600" fill="#fff">Responsable</text><path d="M174 230.0 H252.0 V230.0 H330" fill="none" stroke="#c3ccd8" stroke-width="2"/><rect x="330" y="201.0" width="232" height="58" rx="11" fill="#d9822b"/><text x="346" y="235.0" font-family="Inter,Segoe UI,Arial,sans-serif" font-size="13" font-weight="700" fill="#fff">Datos</text><path d="M562 230.0 H592.0 V204.0 H622" fill="none" stroke="#c3ccd8" stroke-width="1.6"/><rect x="622" y="185.0" width="268" height="38" rx="9" fill="#e39a52"/><text x="636" y="208.0" font-family="Inter,Segoe UI,Arial,sans-serif" font-size="11.5" font-weight="600" fill="#fff">Origen y calidad</text><path d="M562 230.0 H592.0 V256.0 H622" fill="none" stroke="#c3ccd8" stroke-width="1.6"/><rect x="622" y="237.0" width="268" height="38" rx="9" fill="#e39a52"/><text x="636" y="260.0" font-family="Inter,Segoe UI,Arial,sans-serif" font-size="11.5" font-weight="600" fill="#fff">Tratamiento</text><path d="M174 230.0 H252.0 V334.0 H330" fill="none" stroke="#c3ccd8" stroke-width="2"/><rect x="330" y="305.0" width="232" height="58" rx="11" fill="#9a4fd0"/><text x="346" y="339.0" font-family="Inter,Segoe UI,Arial,sans-serif" font-size="13" font-weight="700" fill="#fff">Comportamiento</text><path d="M562 334.0 H592.0 V308.0 H622" fill="none" stroke="#c3ccd8" stroke-width="1.6"/><rect x="622" y="289.0" width="268" height="38" rx="9" fill="#b579de"/><text x="636" y="312.0" font-family="Inter,Segoe UI,Arial,sans-serif" font-size="11.5" font-weight="600" fill="#fff">Rendimiento</text><path d="M562 334.0 H592.0 V360.0 H622" fill="none" stroke="#c3ccd8" stroke-width="1.6"/><rect x="622" y="341.0" width="268" height="38" rx="9" fill="#b579de"/><text x="636" y="364.0" font-family="Inter,Segoe UI,Arial,sans-serif" font-size="11.5" font-weight="600" fill="#fff">Límites y sesgos</text></svg>