<svg xmlns="http://www.w3.org/2000/svg" width="1200" height="620" viewBox="0 0 1200 620" role="img" aria-labelledby="t d">
<title id="t">Seguridad MCP · flujo de control</title><desc id="d">Diagrama original de CyberLibrary AI para Seguridad MCP · flujo de control</desc>
<defs><linearGradient id="bg" x1="0" y1="0" x2="1" y2="1"><stop stop-color="#F8FBFF"/><stop offset="1" stop-color="#EEF4FA"/></linearGradient><filter id="s" x="-20%" y="-20%" width="140%" height="140%"><feDropShadow dx="0" dy="8" stdDeviation="10" flood-color="#284866" flood-opacity=".12"/></filter></defs>
<rect width="1200" height="620" rx="28" fill="url(#bg)"/><path d="M0 100H1200M0 200H1200M0 300H1200M0 400H1200M0 500H1200M100 0V620M200 0V620M300 0V620M400 0V620M500 0V620M600 0V620M700 0V620M800 0V620M900 0V620M1000 0V620M1100 0V620" stroke="#DDE7F1" stroke-width="1" opacity=".45"/>
<rect x="36" y="34" width="10" height="552" rx="5" fill="#E84A5F"/>
<text x="78" y="82" font-family="Inter,Segoe UI,Arial" font-size="16" font-weight="800" fill="#E84A5F" letter-spacing="2">FLUJO DE CONTROL · Seguridad MCP</text><path d="M130 300H1050" stroke="#E84A5F" stroke-width="4" opacity=".35"/><path d="M130 300V215" stroke="#E84A5F" stroke-width="3" opacity=".5"/><g filter="url(#s)"><rect x="42" y="160" width="176" height="110" rx="18" fill="#fff" stroke="#D6E1EC"/><rect x="106" y="187" width="48" height="36" rx="8" fill="none" stroke="#E84A5F" stroke-width="3"/><circle cx="120" cy="205" r="4" fill="#E84A5F"/><circle cx="134" cy="205" r="4" fill="#E84A5F"/><path d="M145 198v14" stroke="#E84A5F" stroke-width="3" stroke-linecap="round"/><text x="130" y="250" text-anchor="middle" font-family="Inter,Segoe UI,Arial" font-size="13" font-weight="750" fill="#18283A"><tspan x="130" dy="0">En pocas palabras</tspan></text></g><circle cx="130" cy="300" r="10" fill="#E84A5F"/><path d="M350 300V385" stroke="#E84A5F" stroke-width="3" opacity=".5"/><g filter="url(#s)"><rect x="262" y="330" width="176" height="110" rx="18" fill="#fff" stroke="#D6E1EC"/><path d="M325 393l10-36h30l10 36z" fill="none" stroke="#E84A5F" stroke-width="3"/><path d="M337 371h26M333 383h34" stroke="#E84A5F" stroke-width="3" stroke-linecap="round"/><text x="350" y="420" text-anchor="middle" font-family="Inter,Segoe UI,Arial" font-size="13" font-weight="750" fill="#18283A"><tspan x="350" dy="0">Dónde está el</tspan><tspan x="350" dy="16">riesgo</tspan></text></g><circle cx="350" cy="300" r="10" fill="#E84A5F"/><path d="M570 300V215" stroke="#E84A5F" stroke-width="3" opacity=".5"/><g filter="url(#s)"><rect x="482" y="160" width="176" height="110" rx="18" fill="#fff" stroke="#D6E1EC"/><circle cx="570" cy="205" r="25" fill="none" stroke="#E84A5F" stroke-width="3"/><path d="M558 213c5-18 19-18 24 0M562 197a8 8 0 1016 0" fill="none" stroke="#E84A5F" stroke-width="3" stroke-linecap="round"/><text x="570" y="250" text-anchor="middle" font-family="Inter,Segoe UI,Arial" font-size="13" font-weight="750" fill="#18283A"><tspan x="570" dy="0">Cómo lo aseguro</tspan></text></g><circle cx="570" cy="300" r="10" fill="#E84A5F"/><path d="M790 300V385" stroke="#E84A5F" stroke-width="3" opacity=".5"/><g filter="url(#s)"><rect x="702" y="330" width="176" height="110" rx="18" fill="#fff" stroke="#D6E1EC"/><path d="M766 357h48v36h-48z" fill="none" stroke="#E84A5F" stroke-width="3"/><path d="M774 367h32M774 375h22M774 383h27" stroke="#E84A5F" stroke-width="3" stroke-linecap="round"/><text x="790" y="420" text-anchor="middle" font-family="Inter,Segoe UI,Arial" font-size="13" font-weight="750" fill="#18283A"><tspan x="790" dy="0">Los errores que veo</tspan><tspan x="790" dy="16">una y otra vez</tspan></text></g><circle cx="790" cy="300" r="10" fill="#E84A5F"/><path d="M1010 300V215" stroke="#E84A5F" stroke-width="3" opacity=".5"/><g filter="url(#s)"><rect x="922" y="160" width="176" height="110" rx="18" fill="#fff" stroke="#D6E1EC"/><circle cx="1010" cy="205" r="22" fill="none" stroke="#E84A5F" stroke-width="3"/><path d="M1000 205h20M1010 195v20" stroke="#E84A5F" stroke-width="3" stroke-linecap="round"/><text x="1010" y="250" text-anchor="middle" font-family="Inter,Segoe UI,Arial" font-size="13" font-weight="750" fill="#18283A"><tspan x="1010" dy="0">Cómo lo llevaría a</tspan><tspan x="1010" dy="16">un entorno real</tspan></text></g><circle cx="1010" cy="300" r="10" fill="#E84A5F"/></svg>