<svg xmlns="http://www.w3.org/2000/svg" width="1200" height="620" viewBox="0 0 1200 620" role="img" aria-labelledby="t d">
<title id="t">Google Vertex AI</title><desc id="d">Diagrama original de CyberLibrary AI para Google Vertex AI</desc>
<defs><linearGradient id="bg" x1="0" y1="0" x2="1" y2="1"><stop stop-color="#F8FBFF"/><stop offset="1" stop-color="#EEF4FA"/></linearGradient><filter id="s" x="-20%" y="-20%" width="140%" height="140%"><feDropShadow dx="0" dy="8" stdDeviation="10" flood-color="#284866" flood-opacity=".12"/></filter></defs>
<rect width="1200" height="620" rx="28" fill="url(#bg)"/><path d="M0 100H1200M0 200H1200M0 300H1200M0 400H1200M0 500H1200M100 0V620M200 0V620M300 0V620M400 0V620M500 0V620M600 0V620M700 0V620M800 0V620M900 0V620M1000 0V620M1100 0V620" stroke="#DDE7F1" stroke-width="1" opacity=".45"/>
<rect x="36" y="34" width="10" height="552" rx="5" fill="#0EA5E9"/>
<text x="78" y="82" font-family="Inter,Segoe UI,Arial" font-size="16" font-weight="800" fill="#0EA5E9" letter-spacing="2">VISIÓN OPERATIVA</text><circle cx="600" cy="330" r="205" fill="none" stroke="#0EA5E9" stroke-width="3" stroke-dasharray="10 10" opacity=".35"/><circle cx="600" cy="330" r="118" fill="#fff" stroke="#0EA5E9" stroke-width="5" filter="url(#s)"/><rect x="576" y="262" width="48" height="36" rx="8" fill="none" stroke="#0EA5E9" stroke-width="3"/><circle cx="590" cy="280" r="4" fill="#0EA5E9"/><circle cx="604" cy="280" r="4" fill="#0EA5E9"/><path d="M615 273v14" stroke="#0EA5E9" stroke-width="3" stroke-linecap="round"/><text x="600" y="355" text-anchor="middle" font-family="Inter,Segoe UI,Arial" font-size="19" font-weight="850" fill="#18283A"><tspan x="600" dy="0">Google Vertex AI</tspan></text><g filter="url(#s)"><circle cx="600" cy="125" r="68" fill="#fff" stroke="#D6E1EC"/><path d="M575 131l10-36h30l10 36z" fill="none" stroke="#0EA5E9" stroke-width="3"/><path d="M587 109h26M583 121h34" stroke="#0EA5E9" stroke-width="3" stroke-linecap="round"/><text x="600" y="159" text-anchor="middle" font-family="Inter,Segoe UI,Arial" font-size="12" font-weight="750" fill="#18283A"><tspan x="600" dy="0">En pocas</tspan><tspan x="600" dy="15">palabras</tspan></text></g><g filter="url(#s)"><circle cx="805" cy="330" r="68" fill="#fff" stroke="#D6E1EC"/><circle cx="805" cy="318" r="25" fill="none" stroke="#0EA5E9" stroke-width="3"/><path d="M793 326c5-18 19-18 24 0M797 310a8 8 0 1016 0" fill="none" stroke="#0EA5E9" stroke-width="3" stroke-linecap="round"/><text x="805" y="364" text-anchor="middle" font-family="Inter,Segoe UI,Arial" font-size="12" font-weight="750" fill="#18283A"><tspan x="805" dy="0">Quién responde</tspan><tspan x="805" dy="15">de qué</tspan></text></g><g filter="url(#s)"><circle cx="600" cy="535" r="68" fill="#fff" stroke="#D6E1EC"/><path d="M576 505h48v36h-48z" fill="none" stroke="#0EA5E9" stroke-width="3"/><path d="M584 515h32M584 523h22M584 531h27" stroke="#0EA5E9" stroke-width="3" stroke-linecap="round"/><text x="600" y="569" text-anchor="middle" font-family="Inter,Segoe UI,Arial" font-size="12" font-weight="750" fill="#18283A"><tspan x="600" dy="0">Lo que aseguro</tspan><tspan x="600" dy="15">yo en Google</tspan><tspan x="600" dy="15">Cloud</tspan></text></g><g filter="url(#s)"><circle cx="395" cy="330" r="68" fill="#fff" stroke="#D6E1EC"/><circle cx="395" cy="318" r="22" fill="none" stroke="#0EA5E9" stroke-width="3"/><path d="M385 318h20M395 308v20" stroke="#0EA5E9" stroke-width="3" stroke-linecap="round"/><text x="395" y="364" text-anchor="middle" font-family="Inter,Segoe UI,Arial" font-size="12" font-weight="750" fill="#18283A"><tspan x="395" dy="0">El malentendido</tspan><tspan x="395" dy="15">que sale caro</tspan></text></g></svg>