<svg xmlns="http://www.w3.org/2000/svg" viewBox="0 0 920 468" role="img" aria-label="Modelo de responsabilidad compartida en IA"><rect width="920" height="468" rx="16" fill="#ffffff"/><rect x="1" y="1" width="918" height="466" rx="15" fill="none" stroke="#e4e9f0"/><text x="460.0" y="42" font-family="Inter,Segoe UI,Arial,sans-serif" font-size="20" font-weight="800" fill="#16202e" text-anchor="middle">Modelo de responsabilidad compartida en IA</text><rect x="24" y="225.0" width="150" height="58" rx="11" fill="#334155"/><text x="99.0" y="251.0" font-family="Inter,Segoe UI,Arial,sans-serif" font-size="13" font-weight="800" fill="#fff" text-anchor="middle">IA en</text><text x="99.0" y="267.0" font-family="Inter,Segoe UI,Arial,sans-serif" font-size="13" font-weight="800" fill="#fff" text-anchor="middle">la nube</text><path d="M174 254.0 H252.0 V134.0 H330" fill="none" stroke="#c3ccd8" stroke-width="2"/><rect x="330" y="105.0" width="232" height="58" rx="11" fill="#2b74d9"/><text x="346" y="139.0" font-family="Inter,Segoe UI,Arial,sans-serif" font-size="13" font-weight="700" fill="#fff">Del proveedor</text><path d="M562 134.0 H592.0 V108.0 H622" fill="none" stroke="#c3ccd8" stroke-width="1.6"/><rect x="622" y="89.0" width="268" height="38" rx="9" fill="#5b93e6"/><text x="636" y="112.0" font-family="Inter,Segoe UI,Arial,sans-serif" font-size="11.5" font-weight="600" fill="#fff">Infra y modelo base</text><path d="M562 134.0 H592.0 V160.0 H622" fill="none" stroke="#c3ccd8" stroke-width="1.6"/><rect x="622" y="141.0" width="268" height="38" rx="9" fill="#5b93e6"/><text x="636" y="164.0" font-family="Inter,Segoe UI,Arial,sans-serif" font-size="11.5" font-weight="600" fill="#fff">Disponibilidad</text><path d="M174 254.0 H252.0 V254.0 H330" fill="none" stroke="#c3ccd8" stroke-width="2"/><rect x="330" y="225.0" width="232" height="58" rx="11" fill="#e23b46"/><text x="346" y="259.0" font-family="Inter,Segoe UI,Arial,sans-serif" font-size="13" font-weight="700" fill="#fff">Tuya</text><path d="M562 254.0 H592.0 V228.0 H622" fill="none" stroke="#c3ccd8" stroke-width="1.6"/><rect x="622" y="209.0" width="268" height="38" rx="9" fill="#ed7a80"/><text x="636" y="232.0" font-family="Inter,Segoe UI,Arial,sans-serif" font-size="11.5" font-weight="600" fill="#fff">Datos y accesos</text><path d="M562 254.0 H592.0 V280.0 H622" fill="none" stroke="#c3ccd8" stroke-width="1.6"/><rect x="622" y="261.0" width="268" height="38" rx="9" fill="#ed7a80"/><text x="636" y="284.0" font-family="Inter,Segoe UI,Arial,sans-serif" font-size="11.5" font-weight="600" fill="#fff">Config y uso</text><path d="M174 254.0 H252.0 V374.0 H330" fill="none" stroke="#c3ccd8" stroke-width="2"/><rect x="330" y="345.0" width="232" height="58" rx="11" fill="#d9822b"/><text x="346" y="379.0" font-family="Inter,Segoe UI,Arial,sans-serif" font-size="13" font-weight="700" fill="#fff">Compartida</text><path d="M562 374.0 H592.0 V348.0 H622" fill="none" stroke="#c3ccd8" stroke-width="1.6"/><rect x="622" y="329.0" width="268" height="38" rx="9" fill="#e39a52"/><text x="636" y="352.0" font-family="Inter,Segoe UI,Arial,sans-serif" font-size="11.5" font-weight="600" fill="#fff">Cifrado</text><path d="M562 374.0 H592.0 V400.0 H622" fill="none" stroke="#c3ccd8" stroke-width="1.6"/><rect x="622" y="381.0" width="268" height="38" rx="9" fill="#e39a52"/><text x="636" y="404.0" font-family="Inter,Segoe UI,Arial,sans-serif" font-size="11.5" font-weight="600" fill="#fff">Registro y auditoría</text></svg>