<svg xmlns="http://www.w3.org/2000/svg" width="1200" height="620" viewBox="0 0 1200 620" role="img" aria-labelledby="t d">
<title id="t">Riesgo de terceros · flujo de control</title><desc id="d">Diagrama original de CyberLibrary AI para Riesgo de terceros · flujo de control</desc>
<defs><linearGradient id="bg" x1="0" y1="0" x2="1" y2="1"><stop stop-color="#F8FBFF"/><stop offset="1" stop-color="#EEF4FA"/></linearGradient><filter id="s" x="-20%" y="-20%" width="140%" height="140%"><feDropShadow dx="0" dy="8" stdDeviation="10" flood-color="#284866" flood-opacity=".12"/></filter></defs>
<rect width="1200" height="620" rx="28" fill="url(#bg)"/><path d="M0 100H1200M0 200H1200M0 300H1200M0 400H1200M0 500H1200M100 0V620M200 0V620M300 0V620M400 0V620M500 0V620M600 0V620M700 0V620M800 0V620M900 0V620M1000 0V620M1100 0V620" stroke="#DDE7F1" stroke-width="1" opacity=".45"/>
<rect x="36" y="34" width="10" height="552" rx="5" fill="#F97316"/>
<text x="78" y="82" font-family="Inter,Segoe UI,Arial" font-size="16" font-weight="800" fill="#F97316" letter-spacing="2">FLUJO DE CONTROL · Riesgo de terceros</text><path d="M150 160H870Q1050 160 1050 340V390" stroke="#F97316" stroke-width="5" fill="none" stroke-linecap="round" opacity=".4"/><g filter="url(#s)"><rect x="58" y="102" width="184" height="116" rx="20" fill="#fff" stroke="#D6E1EC"/><circle cx="88" cy="130" r="17" fill="#F97316"/><text x="88" y="136" text-anchor="middle" font-family="Inter" font-size="13" font-weight="800" fill="#fff">1</text><path d="M150 133l22 9v16c0 18-10 31-22 38-12-7-22-20-22-38v-16l22-9z" fill="none" stroke="#F97316" stroke-width="3"/><path d="M141 158l7 7 13-16" fill="none" stroke="#F97316" stroke-width="3" stroke-linecap="round" stroke-linejoin="round"/><text x="150" y="199" text-anchor="middle" font-family="Inter,Segoe UI,Arial" font-size="13" font-weight="750" fill="#18283A"><tspan x="150" dy="0">En pocas palabras</tspan></text></g><g filter="url(#s)"><rect x="298" y="102" width="184" height="116" rx="20" fill="#fff" stroke="#D6E1EC"/><circle cx="328" cy="130" r="17" fill="#F97316"/><text x="328" y="136" text-anchor="middle" font-family="Inter" font-size="13" font-weight="800" fill="#fff">2</text><rect x="366" y="139" width="48" height="36" rx="8" fill="none" stroke="#F97316" stroke-width="3"/><circle cx="380" cy="157" r="4" fill="#F97316"/><circle cx="394" cy="157" r="4" fill="#F97316"/><path d="M405 150v14" stroke="#F97316" stroke-width="3" stroke-linecap="round"/><text x="390" y="199" text-anchor="middle" font-family="Inter,Segoe UI,Arial" font-size="13" font-weight="750" fill="#18283A"><tspan x="390" dy="0">Qué evalúo de un</tspan><tspan x="390" dy="16">tercero</tspan></text></g><g filter="url(#s)"><rect x="538" y="102" width="184" height="116" rx="20" fill="#fff" stroke="#D6E1EC"/><circle cx="568" cy="130" r="17" fill="#F97316"/><text x="568" y="136" text-anchor="middle" font-family="Inter" font-size="13" font-weight="800" fill="#fff">3</text><path d="M605 175l10-36h30l10 36z" fill="none" stroke="#F97316" stroke-width="3"/><path d="M617 153h26M613 165h34" stroke="#F97316" stroke-width="3" stroke-linecap="round"/><text x="630" y="199" text-anchor="middle" font-family="Inter,Segoe UI,Arial" font-size="13" font-weight="750" fill="#18283A"><tspan x="630" dy="0">Cómo lo gestiono</tspan></text></g><g filter="url(#s)"><rect x="778" y="102" width="184" height="116" rx="20" fill="#fff" stroke="#D6E1EC"/><circle cx="808" cy="130" r="17" fill="#F97316"/><text x="808" y="136" text-anchor="middle" font-family="Inter" font-size="13" font-weight="800" fill="#fff">4</text><circle cx="870" cy="157" r="25" fill="none" stroke="#F97316" stroke-width="3"/><path d="M858 165c5-18 19-18 24 0M862 149a8 8 0 1016 0" fill="none" stroke="#F97316" stroke-width="3" stroke-linecap="round"/><text x="870" y="199" text-anchor="middle" font-family="Inter,Segoe UI,Arial" font-size="13" font-weight="750" fill="#18283A"><tspan x="870" dy="0">Un socio con</tspan><tspan x="870" dy="16">acceso, no una</tspan><tspan x="870" dy="16">herramienta</tspan></text></g><g filter="url(#s)"><rect x="958" y="332" width="184" height="116" rx="20" fill="#fff" stroke="#D6E1EC"/><circle cx="988" cy="360" r="17" fill="#F97316"/><text x="988" y="366" text-anchor="middle" font-family="Inter" font-size="13" font-weight="800" fill="#fff">5</text><path d="M1026 369h48v36h-48z" fill="none" stroke="#F97316" stroke-width="3"/><path d="M1034 379h32M1034 387h22M1034 395h27" stroke="#F97316" stroke-width="3" stroke-linecap="round"/><text x="1050" y="429" text-anchor="middle" font-family="Inter,Segoe UI,Arial" font-size="13" font-weight="750" fill="#18283A"><tspan x="1050" dy="0">El plan de salida,</tspan><tspan x="1050" dy="16">desde el principio</tspan></text></g><g filter="url(#s)"><rect x="480" y="420" width="420" height="110" rx="20" fill="#F97316"/><text x="690" y="468" text-anchor="middle" font-family="Inter" font-size="15" font-weight="700" fill="#fff">Resultado verificable</text><text x="690" y="496" text-anchor="middle" font-family="Inter" font-size="13" fill="#fff" opacity=".85">Decisión · responsable · evidencia</text></g></svg>