<svg xmlns="http://www.w3.org/2000/svg" viewBox="0 0 920 628" role="img" aria-label="Ciclo de vida del sistema de IA · ISO/IEC 42001 (A.6)"><rect width="920" height="628" rx="16" fill="#ffffff"/><rect x="1" y="1" width="918" height="626" rx="15" fill="none" stroke="#e4e9f0"/><text x="460.0" y="42" font-family="Inter,Segoe UI,Arial,sans-serif" font-size="20" font-weight="800" fill="#16202e" text-anchor="middle">Ciclo de vida del sistema de IA · ISO/IEC 42001 (A.6)</text><rect x="24" y="305.0" width="150" height="58" rx="11" fill="#334155"/><text x="99.0" y="323.0" font-family="Inter,Segoe UI,Arial,sans-serif" font-size="13" font-weight="800" fill="#fff" text-anchor="middle">Ciclo de vida</text><text x="99.0" y="339.0" font-family="Inter,Segoe UI,Arial,sans-serif" font-size="13" font-weight="800" fill="#fff" text-anchor="middle">del sistema</text><text x="99.0" y="355.0" font-family="Inter,Segoe UI,Arial,sans-serif" font-size="13" font-weight="800" fill="#fff" text-anchor="middle">de IA</text><path d="M174 334.0 H252.0 V126.0 H330" fill="none" stroke="#c3ccd8" stroke-width="2"/><rect x="330" y="97.0" width="232" height="58" rx="11" fill="#d9822b"/><text x="346" y="123.0" font-family="Inter,Segoe UI,Arial,sans-serif" font-size="13" font-weight="700" fill="#fff">Directrices y procesos</text><text x="346" y="139.0" font-family="Inter,Segoe UI,Arial,sans-serif" font-size="13" font-weight="700" fill="#fff">de desarrollo</text><path d="M562 126.0 H592.0 V100.0 H622" fill="none" stroke="#c3ccd8" stroke-width="1.6"/><rect x="622" y="81.0" width="268" height="38" rx="9" fill="#e39a52"/><text x="636" y="104.0" font-family="Inter,Segoe UI,Arial,sans-serif" font-size="11.5" font-weight="600" fill="#fff">Objetivos de desarrollo responsable</text><path d="M562 126.0 H592.0 V152.0 H622" fill="none" stroke="#c3ccd8" stroke-width="1.6"/><rect x="622" y="133.0" width="268" height="38" rx="9" fill="#e39a52"/><text x="636" y="156.0" font-family="Inter,Segoe UI,Arial,sans-serif" font-size="11.5" font-weight="600" fill="#fff">Procesos formales</text><path d="M174 334.0 H252.0 V230.0 H330" fill="none" stroke="#c3ccd8" stroke-width="2"/><rect x="330" y="201.0" width="232" height="58" rx="11" fill="#df554e"/><text x="346" y="227.0" font-family="Inter,Segoe UI,Arial,sans-serif" font-size="13" font-weight="700" fill="#fff">Especificación, diseño</text><text x="346" y="243.0" font-family="Inter,Segoe UI,Arial,sans-serif" font-size="13" font-weight="700" fill="#fff">y desarrollo</text><path d="M562 230.0 H592.0 V204.0 H622" fill="none" stroke="#c3ccd8" stroke-width="1.6"/><rect x="622" y="185.0" width="268" height="38" rx="9" fill="#e87a74"/><text x="636" y="208.0" font-family="Inter,Segoe UI,Arial,sans-serif" font-size="11.5" font-weight="600" fill="#fff">Requisitos del sistema</text><path d="M562 230.0 H592.0 V256.0 H622" fill="none" stroke="#c3ccd8" stroke-width="1.6"/><rect x="622" y="237.0" width="268" height="38" rx="9" fill="#e87a74"/><text x="636" y="260.0" font-family="Inter,Segoe UI,Arial,sans-serif" font-size="11.5" font-weight="600" fill="#fff">Defensas contra amenazas</text><path d="M174 334.0 H252.0 V334.0 H330" fill="none" stroke="#c3ccd8" stroke-width="2"/><rect x="330" y="305.0" width="232" height="58" rx="11" fill="#d6489b"/><text x="346" y="331.0" font-family="Inter,Segoe UI,Arial,sans-serif" font-size="13" font-weight="700" fill="#fff">Verificación, validación</text><text x="346" y="347.0" font-family="Inter,Segoe UI,Arial,sans-serif" font-size="13" font-weight="700" fill="#fff">y despliegue</text><path d="M562 334.0 H592.0 V308.0 H622" fill="none" stroke="#c3ccd8" stroke-width="1.6"/><rect x="622" y="289.0" width="268" height="38" rx="9" fill="#e072b1"/><text x="636" y="312.0" font-family="Inter,Segoe UI,Arial,sans-serif" font-size="11.5" font-weight="600" fill="#fff">Metodologías de prueba</text><path d="M562 334.0 H592.0 V360.0 H622" fill="none" stroke="#c3ccd8" stroke-width="1.6"/><rect x="622" y="341.0" width="268" height="38" rx="9" fill="#e072b1"/><text x="636" y="364.0" font-family="Inter,Segoe UI,Arial,sans-serif" font-size="11.5" font-weight="600" fill="#fff">Plan de despliegue</text><path d="M174 334.0 H252.0 V438.0 H330" fill="none" stroke="#c3ccd8" stroke-width="2"/><rect x="330" y="409.0" width="232" height="58" rx="11" fill="#9a4fd0"/><text x="346" y="435.0" font-family="Inter,Segoe UI,Arial,sans-serif" font-size="13" font-weight="700" fill="#fff">Operación y</text><text x="346" y="451.0" font-family="Inter,Segoe UI,Arial,sans-serif" font-size="13" font-weight="700" fill="#fff">monitorización</text><path d="M562 438.0 H592.0 V412.0 H622" fill="none" stroke="#c3ccd8" stroke-width="1.6"/><rect x="622" y="393.0" width="268" height="38" rx="9" fill="#b579de"/><text x="636" y="416.0" font-family="Inter,Segoe UI,Arial,sans-serif" font-size="11.5" font-weight="600" fill="#fff">Monitoreo del desempeño</text><path d="M562 438.0 H592.0 V464.0 H622" fill="none" stroke="#c3ccd8" stroke-width="1.6"/><rect x="622" y="445.0" width="268" height="38" rx="9" fill="#b579de"/><text x="636" y="468.0" font-family="Inter,Segoe UI,Arial,sans-serif" font-size="11.5" font-weight="600" fill="#fff">Planes de reparación</text><path d="M174 334.0 H252.0 V542.0 H330" fill="none" stroke="#c3ccd8" stroke-width="2"/><rect x="330" y="513.0" width="232" height="58" rx="11" fill="#6f5bd6"/><text x="346" y="539.0" font-family="Inter,Segoe UI,Arial,sans-serif" font-size="13" font-weight="700" fill="#fff">Documentación técnica</text><text x="346" y="555.0" font-family="Inter,Segoe UI,Arial,sans-serif" font-size="13" font-weight="700" fill="#fff">y registros de eventos</text><path d="M562 542.0 H592.0 V516.0 H622" fill="none" stroke="#c3ccd8" stroke-width="1.6"/><rect x="622" y="497.0" width="268" height="38" rx="9" fill="#9184e2"/><text x="636" y="520.0" font-family="Inter,Segoe UI,Arial,sans-serif" font-size="11.5" font-weight="600" fill="#fff">Documentación técnica</text><path d="M562 542.0 H592.0 V568.0 H622" fill="none" stroke="#c3ccd8" stroke-width="1.6"/><rect x="622" y="549.0" width="268" height="38" rx="9" fill="#9184e2"/><text x="636" y="572.0" font-family="Inter,Segoe UI,Arial,sans-serif" font-size="11.5" font-weight="600" fill="#fff">Registros de eventos</text></svg>