<svg xmlns="http://www.w3.org/2000/svg" width="1200" height="620" viewBox="0 0 1200 620" role="img" aria-labelledby="t d">
<title id="t">Gobierno del SGIA</title><desc id="d">Diagrama original de CyberLibrary AI para Gobierno del SGIA</desc>
<defs><linearGradient id="bg" x1="0" y1="0" x2="1" y2="1"><stop stop-color="#F8FBFF"/><stop offset="1" stop-color="#EEF4FA"/></linearGradient><filter id="s" x="-20%" y="-20%" width="140%" height="140%"><feDropShadow dx="0" dy="8" stdDeviation="10" flood-color="#284866" flood-opacity=".12"/></filter></defs>
<rect width="1200" height="620" rx="28" fill="url(#bg)"/><path d="M0 100H1200M0 200H1200M0 300H1200M0 400H1200M0 500H1200M100 0V620M200 0V620M300 0V620M400 0V620M500 0V620M600 0V620M700 0V620M800 0V620M900 0V620M1000 0V620M1100 0V620" stroke="#DDE7F1" stroke-width="1" opacity=".45"/>
<rect x="36" y="34" width="10" height="552" rx="5" fill="#1F6FE0"/>
<path d="M600 310L210 190" stroke="#1F6FE0" stroke-width="3" stroke-dasharray="9 8" opacity=".55"/><path d="M600 310L980 180" stroke="#1F6FE0" stroke-width="3" stroke-dasharray="9 8" opacity=".55"/><path d="M600 310L210 455" stroke="#1F6FE0" stroke-width="3" stroke-dasharray="9 8" opacity=".55"/><path d="M600 310L980 455" stroke="#1F6FE0" stroke-width="3" stroke-dasharray="9 8" opacity=".55"/><g filter="url(#s)"><rect x="90" y="128" width="240" height="124" rx="18" fill="#fff" stroke="#D6E1EC"/><circle cx="210" cy="174" r="22" fill="none" stroke="#1F6FE0" stroke-width="3"/><path d="M200 174h20M210 164v20" stroke="#1F6FE0" stroke-width="3" stroke-linecap="round"/><text x="210" y="228" text-anchor="middle" font-family="Inter,Segoe UI,Arial" font-size="14" font-weight="700" fill="#18283A"><tspan x="210" dy="0">En pocas palabras</tspan></text></g><g filter="url(#s)"><rect x="860" y="118" width="240" height="124" rx="18" fill="#fff" stroke="#D6E1EC"/><path d="M980 140l22 9v16c0 18-10 31-22 38-12-7-22-20-22-38v-16l22-9z" fill="none" stroke="#1F6FE0" stroke-width="3"/><path d="M971 165l7 7 13-16" fill="none" stroke="#1F6FE0" stroke-width="3" stroke-linecap="round" stroke-linejoin="round"/><text x="980" y="218" text-anchor="middle" font-family="Inter,Segoe UI,Arial" font-size="14" font-weight="700" fill="#18283A"><tspan x="980" dy="0">Por qué llevo años</tspan><tspan x="980" dy="20">insistiendo en esto</tspan></text></g><g filter="url(#s)"><rect x="90" y="393" width="240" height="124" rx="18" fill="#fff" stroke="#D6E1EC"/><rect x="186" y="421" width="48" height="36" rx="8" fill="none" stroke="#1F6FE0" stroke-width="3"/><circle cx="200" cy="439" r="4" fill="#1F6FE0"/><circle cx="214" cy="439" r="4" fill="#1F6FE0"/><path d="M225 432v14" stroke="#1F6FE0" stroke-width="3" stroke-linecap="round"/><text x="210" y="493" text-anchor="middle" font-family="Inter,Segoe UI,Arial" font-size="14" font-weight="700" fill="#18283A"><tspan x="210" dy="0">Qué es un SGIA de</tspan><tspan x="210" dy="20">verdad (y qué no es)</tspan></text></g><g filter="url(#s)"><rect x="860" y="393" width="240" height="124" rx="18" fill="#fff" stroke="#D6E1EC"/><path d="M955 457l10-36h30l10 36z" fill="none" stroke="#1F6FE0" stroke-width="3"/><path d="M967 435h26M963 447h34" stroke="#1F6FE0" stroke-width="3" stroke-linecap="round"/><text x="980" y="493" text-anchor="middle" font-family="Inter,Segoe UI,Arial" font-size="14" font-weight="700" fill="#18283A"><tspan x="980" dy="0">Lo primero que hago:</tspan><tspan x="980" dy="20">fijar el perímetro</tspan></text></g><g filter="url(#s)"><circle cx="600" cy="310" r="120" fill="#fff" stroke="#1F6FE0" stroke-width="5"/><circle cx="600" cy="270" r="22" fill="none" stroke="#1F6FE0" stroke-width="3"/><path d="M590 270h20M600 260v20" stroke="#1F6FE0" stroke-width="3" stroke-linecap="round"/><text x="600" y="340" text-anchor="middle" font-family="Inter,Segoe UI,Arial" font-size="19" font-weight="800" fill="#18283A"><tspan x="600" dy="0">Gobierno del SGIA</tspan></text></g><text x="78" y="82" font-family="Inter,Segoe UI,Arial" font-size="16" font-weight="800" fill="#1F6FE0" letter-spacing="2">MAPA DEL TEMA</text></svg>