<svg xmlns="http://www.w3.org/2000/svg" viewBox="0 0 920 752" role="img" aria-label="Bloques del SGIA y su evidencia · ISO/IEC 42001"><rect width="920" height="752" rx="16" fill="#ffffff"/><rect x="1" y="1" width="918" height="750" rx="15" fill="none" stroke="#e4e9f0"/><text x="460.0" y="42" font-family="Inter,Segoe UI,Arial,sans-serif" font-size="20" font-weight="800" fill="#16202e" text-anchor="middle">Bloques del SGIA y su evidencia · ISO/IEC 42001</text><rect x="24" y="367.0" width="150" height="58" rx="11" fill="#334155"/><text x="99.0" y="385.0" font-family="Inter,Segoe UI,Arial,sans-serif" font-size="13" font-weight="800" fill="#fff" text-anchor="middle">Sistema de</text><text x="99.0" y="401.0" font-family="Inter,Segoe UI,Arial,sans-serif" font-size="13" font-weight="800" fill="#fff" text-anchor="middle">Gestión de IA</text><text x="99.0" y="417.0" font-family="Inter,Segoe UI,Arial,sans-serif" font-size="13" font-weight="800" fill="#fff" text-anchor="middle">(SGIA)</text><path d="M174 396.0 H252.0 V120.0 H330" fill="none" stroke="#c3ccd8" stroke-width="2"/><rect x="330" y="91.0" width="232" height="58" rx="11" fill="#2b74d9"/><text x="346" y="125.0" font-family="Inter,Segoe UI,Arial,sans-serif" font-size="13" font-weight="700" fill="#fff">Contexto y alcance</text><path d="M562 120.0 H592.0 V120.0 H622" fill="none" stroke="#c3ccd8" stroke-width="1.6"/><rect x="622" y="101.0" width="268" height="38" rx="9" fill="#5b93e6"/><text x="636" y="124.0" font-family="Inter,Segoe UI,Arial,sans-serif" font-size="11.5" font-weight="600" fill="#fff">Declaración de alcance</text><path d="M174 396.0 H252.0 V212.0 H330" fill="none" stroke="#c3ccd8" stroke-width="2"/><rect x="330" y="183.0" width="232" height="58" rx="11" fill="#d9822b"/><text x="346" y="217.0" font-family="Inter,Segoe UI,Arial,sans-serif" font-size="13" font-weight="700" fill="#fff">Liderazgo y política</text><path d="M562 212.0 H592.0 V212.0 H622" fill="none" stroke="#c3ccd8" stroke-width="1.6"/><rect x="622" y="193.0" width="268" height="38" rx="9" fill="#e39a52"/><text x="636" y="216.0" font-family="Inter,Segoe UI,Arial,sans-serif" font-size="11.5" font-weight="600" fill="#fff">Política de IA aprobada</text><path d="M174 396.0 H252.0 V304.0 H330" fill="none" stroke="#c3ccd8" stroke-width="2"/><rect x="330" y="275.0" width="232" height="58" rx="11" fill="#df554e"/><text x="346" y="309.0" font-family="Inter,Segoe UI,Arial,sans-serif" font-size="13" font-weight="700" fill="#fff">Planificación y riesgos</text><path d="M562 304.0 H592.0 V304.0 H622" fill="none" stroke="#c3ccd8" stroke-width="1.6"/><rect x="622" y="285.0" width="268" height="38" rx="9" fill="#e87a74"/><text x="636" y="308.0" font-family="Inter,Segoe UI,Arial,sans-serif" font-size="11.5" font-weight="600" fill="#fff">Metodología + objetivos</text><path d="M174 396.0 H252.0 V396.0 H330" fill="none" stroke="#c3ccd8" stroke-width="2"/><rect x="330" y="367.0" width="232" height="58" rx="11" fill="#d6489b"/><text x="346" y="401.0" font-family="Inter,Segoe UI,Arial,sans-serif" font-size="13" font-weight="700" fill="#fff">Soporte y recursos</text><path d="M562 396.0 H592.0 V396.0 H622" fill="none" stroke="#c3ccd8" stroke-width="1.6"/><rect x="622" y="377.0" width="268" height="38" rx="9" fill="#e072b1"/><text x="636" y="400.0" font-family="Inter,Segoe UI,Arial,sans-serif" font-size="11.5" font-weight="600" fill="#fff">Plan de competencias</text><path d="M174 396.0 H252.0 V488.0 H330" fill="none" stroke="#c3ccd8" stroke-width="2"/><rect x="330" y="459.0" width="232" height="58" rx="11" fill="#9a4fd0"/><text x="346" y="493.0" font-family="Inter,Segoe UI,Arial,sans-serif" font-size="13" font-weight="700" fill="#fff">Operación</text><path d="M562 488.0 H592.0 V488.0 H622" fill="none" stroke="#c3ccd8" stroke-width="1.6"/><rect x="622" y="469.0" width="268" height="38" rx="9" fill="#b579de"/><text x="636" y="492.0" font-family="Inter,Segoe UI,Arial,sans-serif" font-size="11.5" font-weight="600" fill="#fff">Controles por sistema</text><path d="M174 396.0 H252.0 V580.0 H330" fill="none" stroke="#c3ccd8" stroke-width="2"/><rect x="330" y="551.0" width="232" height="58" rx="11" fill="#2ca089"/><text x="346" y="585.0" font-family="Inter,Segoe UI,Arial,sans-serif" font-size="13" font-weight="700" fill="#fff">Evaluación del desempeño</text><path d="M562 580.0 H592.0 V580.0 H622" fill="none" stroke="#c3ccd8" stroke-width="1.6"/><rect x="622" y="561.0" width="268" height="38" rx="9" fill="#5cbfae"/><text x="636" y="584.0" font-family="Inter,Segoe UI,Arial,sans-serif" font-size="11.5" font-weight="600" fill="#fff">Indicadores y acta</text><path d="M174 396.0 H252.0 V672.0 H330" fill="none" stroke="#c3ccd8" stroke-width="2"/><rect x="330" y="643.0" width="232" height="58" rx="11" fill="#6f5bd6"/><text x="346" y="677.0" font-family="Inter,Segoe UI,Arial,sans-serif" font-size="13" font-weight="700" fill="#fff">Mejora</text><path d="M562 672.0 H592.0 V672.0 H622" fill="none" stroke="#c3ccd8" stroke-width="1.6"/><rect x="622" y="653.0" width="268" height="38" rx="9" fill="#9184e2"/><text x="636" y="676.0" font-family="Inter,Segoe UI,Arial,sans-serif" font-size="11.5" font-weight="600" fill="#fff">Registro de no conformidades</text></svg>