<svg xmlns="http://www.w3.org/2000/svg" viewBox="0 0 900 380" role="img" aria-label="Diagrama de Fugas de datos"><defs><linearGradient id="g" x1="0" y1="0" x2="1" y2="1"><stop stop-color="#ff525d" stop-opacity=".22"/><stop offset="1" stop-color="#07131f" stop-opacity=".2"/></linearGradient><filter id="gl"><feGaussianBlur stdDeviation="8"/></filter></defs><rect width="900" height="380" rx="24" fill="#06111d"/><rect x="1" y="1" width="898" height="378" rx="23" fill="url(#g)" stroke="#ff525d" stroke-opacity=".35"/><path d="M 90 270 L 170 115" stroke="#ff525d" stroke-opacity=".28" stroke-width="2"/><path d="M 185 225 L 252 153" stroke="#ff525d" stroke-opacity=".28" stroke-width="2"/><path d="M 280 180 L 334 191" stroke="#ff525d" stroke-opacity=".28" stroke-width="2"/><path d="M 375 270 L 416 229" stroke="#ff525d" stroke-opacity=".28" stroke-width="2"/><path d="M 470 225 L 498 115" stroke="#ff525d" stroke-opacity=".28" stroke-width="2"/><path d="M 565 180 L 580 153" stroke="#ff525d" stroke-opacity=".28" stroke-width="2"/><circle cx="290" cy="247" r="45" fill="none" stroke="#ff525d" stroke-opacity="0.15" stroke-width="2"/><circle cx="438" cy="254" r="30" fill="none" stroke="#ff525d" stroke-opacity="0.21" stroke-width="2"/><circle cx="544" cy="255" r="44" fill="none" stroke="#ff525d" stroke-opacity="0.27" stroke-width="2"/><circle cx="470" cy="255" r="21" fill="none" stroke="#ff525d" stroke-opacity="0.33" stroke-width="2"/><circle cx="461" cy="290" r="17" fill="none" stroke="#ff525d" stroke-opacity="0.39" stroke-width="2"/><circle cx="722" cy="152" r="35" fill="none" stroke="#ff525d" stroke-opacity="0.45" stroke-width="2"/><circle cx="580" cy="73" r="12" fill="none" stroke="#ff525d" stroke-opacity="0.51" stroke-width="2"/><circle cx="125" cy="51" r="12" fill="none" stroke="#ff525d" stroke-opacity="0.57" stroke-width="2"/><circle cx="450" cy="190" r="94" fill="#ff525d" fill-opacity=".08" stroke="#ff525d" stroke-width="3"/><circle cx="450" cy="190" r="68" fill="#07131f" stroke="#ff525d" stroke-opacity=".7"/><text x="450" y="205" text-anchor="middle" fill="#ff525d" font-size="43" font-family="Arial" font-weight="700">FDD</text><text x="450" y="342" text-anchor="middle" fill="#aab9c8" font-size="20" font-family="Arial">Fugas de datos</text></svg>