<svg xmlns="http://www.w3.org/2000/svg" viewBox="0 0 900 380" role="img" aria-label="Diagrama de Recogida de evidencias"><defs><linearGradient id="g" x1="0" y1="0" x2="1" y2="1"><stop stop-color="#19d6e9" stop-opacity=".22"/><stop offset="1" stop-color="#07131f" stop-opacity=".2"/></linearGradient><filter id="gl"><feGaussianBlur stdDeviation="8"/></filter></defs><rect width="900" height="380" rx="24" fill="#06111d"/><rect x="1" y="1" width="898" height="378" rx="23" fill="url(#g)" stroke="#19d6e9" stroke-opacity=".35"/><path d="M 90 270 L 170 115" stroke="#19d6e9" stroke-opacity=".28" stroke-width="2"/><path d="M 185 225 L 252 153" stroke="#19d6e9" stroke-opacity=".28" stroke-width="2"/><path d="M 280 180 L 334 191" stroke="#19d6e9" stroke-opacity=".28" stroke-width="2"/><path d="M 375 270 L 416 229" stroke="#19d6e9" stroke-opacity=".28" stroke-width="2"/><path d="M 470 225 L 498 115" stroke="#19d6e9" stroke-opacity=".28" stroke-width="2"/><path d="M 565 180 L 580 153" stroke="#19d6e9" stroke-opacity=".28" stroke-width="2"/><circle cx="584" cy="321" r="32" fill="none" stroke="#19d6e9" stroke-opacity="0.15" stroke-width="2"/><circle cx="475" cy="276" r="20" fill="none" stroke="#19d6e9" stroke-opacity="0.21" stroke-width="2"/><circle cx="286" cy="326" r="44" fill="none" stroke="#19d6e9" stroke-opacity="0.27" stroke-width="2"/><circle cx="613" cy="67" r="40" fill="none" stroke="#19d6e9" stroke-opacity="0.33" stroke-width="2"/><circle cx="129" cy="208" r="37" fill="none" stroke="#19d6e9" stroke-opacity="0.39" stroke-width="2"/><circle cx="68" cy="129" r="13" fill="none" stroke="#19d6e9" stroke-opacity="0.45" stroke-width="2"/><circle cx="498" cy="89" r="13" fill="none" stroke="#19d6e9" stroke-opacity="0.51" stroke-width="2"/><circle cx="639" cy="52" r="12" fill="none" stroke="#19d6e9" stroke-opacity="0.57" stroke-width="2"/><circle cx="450" cy="190" r="94" fill="#19d6e9" fill-opacity=".08" stroke="#19d6e9" stroke-width="3"/><circle cx="450" cy="190" r="68" fill="#07131f" stroke="#19d6e9" stroke-opacity=".7"/><text x="450" y="205" text-anchor="middle" fill="#19d6e9" font-size="43" font-family="Arial" font-weight="700">RDE</text><text x="450" y="342" text-anchor="middle" fill="#aab9c8" font-size="20" font-family="Arial">Recogida de evidencias</text></svg>