<svg xmlns="http://www.w3.org/2000/svg" viewBox="0 0 900 380" role="img" aria-label="Diagrama de Métricas y SLO"><defs><linearGradient id="g" x1="0" y1="0" x2="1" y2="1"><stop stop-color="#ffb21a" stop-opacity=".22"/><stop offset="1" stop-color="#07131f" stop-opacity=".2"/></linearGradient><filter id="gl"><feGaussianBlur stdDeviation="8"/></filter></defs><rect width="900" height="380" rx="24" fill="#06111d"/><rect x="1" y="1" width="898" height="378" rx="23" fill="url(#g)" stroke="#ffb21a" stroke-opacity=".35"/><path d="M 90 270 L 170 115" stroke="#ffb21a" stroke-opacity=".28" stroke-width="2"/><path d="M 185 225 L 252 153" stroke="#ffb21a" stroke-opacity=".28" stroke-width="2"/><path d="M 280 180 L 334 191" stroke="#ffb21a" stroke-opacity=".28" stroke-width="2"/><path d="M 375 270 L 416 229" stroke="#ffb21a" stroke-opacity=".28" stroke-width="2"/><path d="M 470 225 L 498 115" stroke="#ffb21a" stroke-opacity=".28" stroke-width="2"/><path d="M 565 180 L 580 153" stroke="#ffb21a" stroke-opacity=".28" stroke-width="2"/><circle cx="667" cy="236" r="21" fill="none" stroke="#ffb21a" stroke-opacity="0.15" stroke-width="2"/><circle cx="573" cy="131" r="33" fill="none" stroke="#ffb21a" stroke-opacity="0.21" stroke-width="2"/><circle cx="561" cy="247" r="38" fill="none" stroke="#ffb21a" stroke-opacity="0.27" stroke-width="2"/><circle cx="735" cy="307" r="22" fill="none" stroke="#ffb21a" stroke-opacity="0.33" stroke-width="2"/><circle cx="669" cy="171" r="49" fill="none" stroke="#ffb21a" stroke-opacity="0.39" stroke-width="2"/><circle cx="748" cy="92" r="32" fill="none" stroke="#ffb21a" stroke-opacity="0.45" stroke-width="2"/><circle cx="321" cy="70" r="12" fill="none" stroke="#ffb21a" stroke-opacity="0.51" stroke-width="2"/><circle cx="705" cy="51" r="12" fill="none" stroke="#ffb21a" stroke-opacity="0.57" stroke-width="2"/><circle cx="450" cy="190" r="94" fill="#ffb21a" fill-opacity=".08" stroke="#ffb21a" stroke-width="3"/><circle cx="450" cy="190" r="68" fill="#07131f" stroke="#ffb21a" stroke-opacity=".7"/><text x="450" y="205" text-anchor="middle" fill="#ffb21a" font-size="43" font-family="Arial" font-weight="700">MYS</text><text x="450" y="342" text-anchor="middle" fill="#aab9c8" font-size="20" font-family="Arial">Métricas y SLO</text></svg>